<mxfile host="app.diagrams.net" agent="Mozilla/5.0 (Windows NT 10.0; Win64; x64) AppleWebKit/537.36 (KHTML, like Gecko) Chrome/130.0.0.0 Safari/537.36 Edg/130.0.0.0" version="24.8.6">
  <diagram name="Page-1" id="NBM4g7echvxxwpTTJyKf">
    <mxGraphModel dx="815" dy="427" grid="1" gridSize="10" guides="1" tooltips="1" connect="1" arrows="1" fold="1" page="1" pageScale="1" pageWidth="850" pageHeight="1100" math="0" shadow="0">
      <root>
        <mxCell id="0" />
        <mxCell id="1" parent="0" />
        <mxCell id="GtWw16-VSp0ScC8IDSwp-32" value="" style="shape=image;verticalLabelPosition=bottom;labelBackgroundColor=default;verticalAlign=top;aspect=fixed;imageAspect=0;image=https://mlv0gpv1snjt.i.optimole.com/cb:lAJ-.51688/w:auto/h:auto/q:90/f:best/ig:avif/https://novelbits.io/wp-content/uploads/2022/10/Bluetooth-mesh-publish-subscribe.png;imageBorder=default;strokeWidth=3;" vertex="1" parent="1">
          <mxGeometry x="106" y="300" width="639" height="371" as="geometry" />
        </mxCell>
        <mxCell id="GtWw16-VSp0ScC8IDSwp-20" style="edgeStyle=orthogonalEdgeStyle;rounded=0;orthogonalLoop=1;jettySize=auto;html=1;fillColor=#f8cecc;strokeColor=#b85450;startArrow=classic;startFill=1;endArrow=none;endFill=0;exitX=0.154;exitY=0.029;exitDx=0;exitDy=0;exitPerimeter=0;curved=1;" edge="1" parent="1" source="GtWw16-VSp0ScC8IDSwp-38" target="GtWw16-VSp0ScC8IDSwp-17">
          <mxGeometry relative="1" as="geometry">
            <mxPoint x="391" y="199.48275862068965" as="sourcePoint" />
            <Array as="points">
              <mxPoint x="300" y="240" />
              <mxPoint x="338" y="240" />
            </Array>
          </mxGeometry>
        </mxCell>
        <mxCell id="GtWw16-VSp0ScC8IDSwp-33" style="edgeStyle=orthogonalEdgeStyle;rounded=0;orthogonalLoop=1;jettySize=auto;html=1;fillColor=#dae8fc;strokeColor=#6c8ebf;dashed=1;startArrow=none;startFill=0;exitX=0.517;exitY=0.984;exitDx=0;exitDy=0;exitPerimeter=0;entryX=0.667;entryY=-0.017;entryDx=0;entryDy=0;curved=1;entryPerimeter=0;" edge="1" parent="1" source="GtWw16-VSp0ScC8IDSwp-12" target="GtWw16-VSp0ScC8IDSwp-36">
          <mxGeometry relative="1" as="geometry" />
        </mxCell>
        <mxCell id="GtWw16-VSp0ScC8IDSwp-2" value="" style="image;html=1;image=img/lib/clip_art/networking/Wireless_Router_128x128.png" vertex="1" parent="1">
          <mxGeometry x="385" y="140" width="80" height="80" as="geometry" />
        </mxCell>
        <mxCell id="GtWw16-VSp0ScC8IDSwp-6" style="edgeStyle=orthogonalEdgeStyle;rounded=0;orthogonalLoop=1;jettySize=auto;html=1;startArrow=none;startFill=0;fillColor=#f8cecc;strokeColor=#b85450;" edge="1" parent="1" source="GtWw16-VSp0ScC8IDSwp-15">
          <mxGeometry relative="1" as="geometry">
            <mxPoint x="470" y="180" as="targetPoint" />
          </mxGeometry>
        </mxCell>
        <mxCell id="GtWw16-VSp0ScC8IDSwp-5" value="" style="shape=image;verticalLabelPosition=bottom;labelBackgroundColor=default;verticalAlign=top;aspect=fixed;imageAspect=0;image=data:image/png,iVBORw0KGgoAAAANSUhEUgAAAfQAAAH0CAYAAADL1t+KAADcHklEQVR42uydB3hT19nHkTcj7LASsklC0jRt0mYRpgcGG2M2hD09sA1eZNGEDJrdjC9pRjPaJk3TlTRJM8ADvLdlm02AsKfBGCRd6Ury+c577r22kCVZkjWupPd9nvMYPDXP7/7/7zg9emBgYGBgYGBgYGBgYGBgYGBgYGBgYGBgYGBgYGBgYGBgYGBgYGBgYGBgYGBgYGBgYGBgYGBgYGBgYGBgYGBgYGBgYGBgYGBgYGBgYGBgYGBgYGBgYGBgYGD4fCgCZGFgYGBgYCDMEeoYGBgYGBiBAecgNy68AMDAwMDAQJjLAMjeXAh1DAwMDAy/Vd6uAGWwF5fcVD8GBgYGBoZbYO4pSId4YXkC+gh1DAwMDAyPKnBXA7srmIY6ucLsXI78TlddAHhS0WNgYGBgIMztBrij0LYTxoqwHgpFmEIRFBYUHBIWHBYRFtqzd3j4Vf3Dew28Orz31cPDrxp6bXjf4deF97vmxvD+190SPuCG28IH3Xxn+NW33R0+9M7fhA+/+8Hwa+4dyxb8Gz4HXxt0y53hA2+8jf0M/Cz8jj70d8HvhN8NfyO0V59w+Jvwt+E2wG1hy/rFQJgd8HeFukeoY2BgYCC0uw3w7kK7A9RBFNQhoeEhEb0YQHsPHhbef+TN4UNG/zr8mnsejrglckbEb5blRPTqPyiC/ly4FWXdHZvcliNg+rfC4TbAbbktdl7EyPsm0dt4T3g/elvhNjP40wuNoNAwdp8E6Cu6cgEcub1o12NgYGAgzC0C2xq8g+2Ad1e2OIMYU9UhoWGhJrAecP0oppBvHDs14p5F6yN69h0ggTrcBHwhFmAWdl/aUwPm/rlw5PL/HRi9tqTlt9k7yPgNP5Hox4+Q2CeOkrgnT5CEjafJjE0XyKxnW8nczRqy4Pc6suhFI1n6CiErYMG/4XPwNfieZ+j3ws/Az8LveIz+Lvid8LvTSlt/s/yHn2+f+fG2kfevfnqAePuCLDwWpvAPj6D3Ce4bXIwM/+UDEXCf26FPHwt4TJjatwx8ey9M7AV8V7A3f91gYGBgYMhciQfZAXBL0DaFlkVwA5gooMKDQ8MZtK4afh2AO4L+MXNVbQ5r+JvhkX/4x9BF/915W0bl5fty95Oop86QGS/oyJLXCEl9l5ANXxDy3GY1+UPOLvLeeiX/2bo67Vfrarm89XVc2fo6bc36eq6e/ruRfn7nujpu9/p67T76+QP048/041G6Tqyv151iC/4Nn6Nfo99/YF09tw9+hi742cZ19Zp6+rGGrrKMWk1eRh331Tql7rNs+refo7cBbsv79DbBbdusJUs20tuavY9ErS2/fN+ib/fcFv3Gv4aK9znIFvQVCkXEwJtGR/Qdfn0EPGbw2MFjaEPVh1h4TkKsAL4r4KNyx8DAwPAReNuyzU0BYA7w4B7W7XIBMmCTBwcze7nXoKHhgyiUho6+J4IqT1N4S78jYvIrnw5d9e2+W9MrL9//6EEy+elzZB5VyWveIeRRCsfNmy+Rt6ka/pTC9r+ZddpCCtvq9QzK3JHMel1zZj2vyVLyJJOu9UodWVcvrIw6LUmHVaslaWZrrdlKrblytX++lqML/s2JS/h8Wp2w4PfD38mo19K/qWV/X7wdGvr/Zgr9I/SCYDeFfjVdhfT7/pu5o+3TZ+l9+pzet/co+F8hZM0mep9zfyKTUysu37/kmz23TXnhkyE9hIsd6fFmkA/t2StiCH0sAfS9Bg2B/4fDY20lZx/So2vb3hVwR8hjYGBgeAHmjuS8u7TMJYAHhYZR5d0PisYiBt1yp6lFbqq4w+Z+Wnnd+irNAxtPklnPqUjGxiPkFQrrzymYv6Ww3p5Zz9VRWO/PrNeezKrXXc6mcGSwpoBeL4IaIJrGYCusFArgZLqSajiyupojK6u1ZEWVliyr4siSCo4shlXesRbBKtOwtVBcC8zWQvNVTr+fLeHnF4u/dyldyys5+vc4soquNdUakkRvQzK9LSl0pdYIFwJweyX4d4Cf3afL9P8nM+o0+ynw69LruO0U+t9S6H/++DHyCn2M0p84SWaupY/ZrE+rR4qPuamiZ4/z4FvvioBcPSh5qDcwA7wtJe9oAR5CHQMDA0PGStwhgCuCgsJDwiPCew4YDMVpEf1H3hghqkkJHMG3TV/dN2n72bs2HCRTnleR1a8R8swz58hHFN5UZetKKLB303WWgtqQqZQUdQesJdXMQF0tgBogDfAESC+i6xEK2Pl0zaPAnVOqIbPpmkXXTFglGjKDrsRiDZluYSUUXbmmmS3h82rx/2qSUHzlmm6yZsAqUdO/qSaz6JpN19xSNZlHF1wcwIUAXEgsrdDQ268hK6s09P5oKPy5DviLFyftql9Q/Aaq8M9kMIWvLVm/o+2r39HH8CX6WD57mazO2U+mrC48ftcdiUl9zZQ8e04o4CPgOYLnCp6zbgIelTsGBgaGjJR4VyrcmgIPD6YKPKLfwPB+19wgwdtUfYcs+KLy2uwG/finm8mql/TkxccPkr9nKfWFFNoNmXXcMaq21aC014vglqCdTNW0AGuOLDOHNYXhXAnUJQKkYSWWiFAuFuAbT1ectbW9e2vqdjVd0kf7Vxxd8dvV7RcDAP5EEf4zizvAD9CfV0bBL6r/JRT6yyj0V1Rq2OMCsJdAL0AeLn60aqrmj9HVsE6pK9xwiPz9BQN58akWsjJNaRg397Pya8yeU3iuIvqOuD4iou8AqLIHBW8v4FG5Y2BgYMgU4na1Xwk58F7hvQYOiejZt7+pAg8Ju/r63kn5x+947CBJfP4S2fB7jnzw6B7yPYV2DQX4EfpRI6luUJtrRVsc1OhKEdwStOeawHqGCOtESUGbANt0xTmyvABzh6Bf1AH+acVXwn+WCHt4nBaL6n5VlaDsJdCnixY+XRqq5I9Q6Ndk7yHfPachH2yiz03uTyRxRf6J0fR562Wq4CPoc9pr0NAIqHNQBAWbdhB0VVGPyh0DAwPDTTB3FOKWbXRJhfcdENFv+HXmKjxs+X/33LhhP0nc3EqefuJn8o/sRkNJVr12D13nsut1bZliERpT3RTeq6uE3DLkmReKant26ZXglqzueAeX54CucSvQpTXFypKgb6rywdqfQ0E/X7TyQdGvNIE8PP6iXd9GP56jz8medY2G4g2HyRebWsjTFPaJC7/cfaMJtAX1Pmxkz3AKeXgNKOxT76jcMTAwMFygxu3JiXcFcbZxB4dBG1k/gHdPUxU+4ek/Xr2uVjXhqZMk85mz5JMNu0gRVd57KbxbssQCtXQpz10tFIQtrRTgPRfgbWqPiznpeBcuzwFd7TWgW1uSsp9mksOfLULeVMkndVbxLRTyezN3ku0bT5NPHj9J1q+tUY0ft+H1wabqHV4L4X36mcI93AXKHcGOgYGBMO9he8CLNTVuDeIRQaGhEaG9+vQ0hXhwRL8+q/OP/PKJI2QZVeFvPbaPbM1W8jsovE9TiOszTQAOanCFqL4XmNjmUm57movhjUDvek01gzwU6M0V7XpQ8SugEE8svmOAr9PqM+q5UxlK3Y4c+lxT9f7WowfJspXfH/oFfT30NoU7fa1EBIWERvSgrx0rcHdUuSPUMTAwUJE7YKmH9ZBaxwDiISERIeE9TSEePuS20VdlVJy/b+MR8ujjB8iXOY1GJQX4kex6rTpLstBFBb5SAjhUlJvkvKWKcU9A3N9y6K4EukUlb5KXT2QqXtMO+JWigl/bUVGvps/3kfWNBmUufS08epg8mlx6/r6BN46+SrLl4bUDryF4LZnAPdyGcu+uJY+BgYHhFzDvNsQVQcGgrCSIwwq/5oHJ/VLLWsY8eYg88dh+8k12o2EXhfc5uozrxZYxqDxnFrpYuDbHJPc93UKLlydhHkg5dFcvScUniLl4cFYgRbJMtOghBw/PPwW7ka5z6xr0u6h6/4YC/omk4gsPjrhnQj/x9cVeT/DagtcYfblG2GHLo2rHwMBAW90OiIe1qygAeQfAmRq/NTJ+QHadagKF+DMU4luyGwz7KMCbAeKQW4XhJ2CjQxEbtE7NEy30GcUdFnpXS5ZA71bLmtqvYA4r1mQxwBd1AB4u2OB5X1QhtMzB62FtB9yb1yn1+7L3ki0bDpBnUqpU40eOnTJAUu2w2GtOUO1dwR1z7RgYGH4Nc3vVuCWIh5turOLqdd2cJQMyai9NeuIn8vyj+0ghhfjBLKGgzbiuThhpCpv2Mmajc6yIDQCeWGx50ErgAV3j10CPtQB4qaI+kS5Iq8CEvOViP7wJ3Fso3A9m7aGvqX3k+bU1lyddkzB3YA+hLc40pWNuyYc5qNoR6BgYGD6tyO0BuSnEJZDDZtq7hyK0z9w/V43asJfkPAobboP+MAX4RYB4BusFFyauMSvdBOL2qvBAAvrUAAN67LYr11RxMM70IjV7nTwiwh0uAlM74H6Rwv1w1k5SuG4XyZ79SdUoRVBoH/H12MsG3B1R7ajYMTAwZA9ze231Ky31K9U4A/l1UdMHrq9WTd2wh3yQs4PspQA/LylxgPiqamEC23wK8Vkm41ATiroPcgS6fwJdWlO2dfTDJ5jAfZmo3CFdQ8FuyKjXns9oatu7nr4GU6tUU66NnD6wh1Atbw3u9uTaUbFjYGD4pCK3nRs3UeMKhaJP3xE39J3xbtHNObvaMqka357dYDjJJrTV69hhIKtEJW4O8WlF7ln+WRCnDnigW1LuEtzhdQVdD0tF5S4eQKPJUOpPZu4k29Kb2tYnvJ1/C32t9utBX7M2wN6VakfFjoGB4VOK3Jqt3q7G+464/qrro2cMzCy/ODlnJ3k/dwf5KUvJQ17cAC1m0F62HCaziXa6uyHu/xXu/gP0WBcB3RrcIecOk+tWiNXyFOyG9HpdC1XtP61rIu8nl12MGRmVOPAq+hq2oNrtteNRsWNgYMhOkdtqOeuUGx9y+y/7JbyVd1NWE5++QVDjZ65Q43BMqFidPrMbhW0IdM9WuPs60C3l3KEmAybWLTEpphNV+5n1O8n2NCWflvBW/k1D7rinr4klb48dj1XxGBgYslbkVm31ngMG97lhzOQBiz4rG529k9+Y29TWRNV4a7sar7lSjbPiti6OBA0ooGPLmkeBbg73aVKlvKjaUzpUe2tGg7EpXck/OZe+tq9/KGZARP9BfZwAOyp2DAwMryjyrkDebqsPvfPevnclLhu0Ku/wmJxGw1s5TW0/ZzXwaqrGjWk21LilhUDHljVPA32yyZJa4dpVe4XU384ZKdjVFOyH1jUa3ly65dBDo+MXDxp06919rdjxltrenFHsGBgYGG5T5O0gv2lCfP+H1780PL2iZUbuLvJlTpPxTJZSp8tUatvAVofzwm2pcQQ6Vri7uyDOUaBLy1y1w/AawY7n2qhq12U0GE6vayJfrCo+P+0h+h64YVxc/x7W8+yo2DEwMLyqyEOtgLz3zWOnDoh748sbM2pVq3J3kOLsBn0rBbkeJril1ArT2x6hinxmiW01jjB3R0GcBoHeTZhPtqDa403a32CmfKoAdn2Gkm/NaGorTqlWrZz6+pc33jCGTaPr3ePKgTWuyrFjYGAg0Luc7mYZ5MJYzHaQj5qUOGD6m/+9aX21ajVV41VZDbyGghyGdTBbUmg5E88OdwDkCHQEupyBbm7HQ9pogTi0hs2Sr9OCHa+hqr0ytVK1evIb/73p5onTrwT7lae+2aPYEeoYGAhxl4O8120xswfOfOe7m9dXXV6V02SoyG7guUylri2tTugdhxPN4NCM9pPMnIA52u1Y4e7t/Lm9S7Lj4TQ4qAuR8uxptdo2CnYuo0FfkVJxeeXUt7+7eVTU7AE9TEfM2gd2zK9jYCDMHbbXbYL89th5A2d/sHXUuspLKynIyyjItQzktcLJZgspyGebgxyB7rcFcQh023n2xRTsSR1g11KwlyVXXFox7f2to26dPM9kdrzCFtgxv46BgSB3uuBNOra0HeSjpywYOO/jbbeuq2xdkdOoL6Ug11kCeWKJGcR9AOb+C/QAsttlAnRreXYzsOvSlfqS5PLW5Ykfbbt1VHSHYmfvuc5g787UOQwMDD+GuSMg7zn49rv7UZCPWlfRupyCvJiCnKcgJ3aDHNU5Tojzgwr37oJ9mhnYYVBNWr2OT1fyRSnlrUsS/7T1loG33d1Pet+5EOwYGBh+AvGuJrxdYa8rgoIienS02VwV88JfRqaWnpue06D/JrtBr7UE8uldgRyB7kWgY8uaHIDebsdLYC8VwC6d1U6hrqXr65XFZxMmvfDpdYqQ0Ks6FHuQpap4Z/LrGBgYPgx0u/PkAHJx42CV6w9n/X5YSuHxSdlK3bvZjfqWLArydGdB7iTQ0W6Xv90e6BXuLgV7HQP7+bV1uvdX5B2b9HD65mHSxTW8NxWKIFcUzmFgYPgtyBWKiKCQkHZ7/a7Zqwet/GHffevrNU/nNOqPZjfwZJ3YfrbIWZBj/tzLBXHYsiY3oMOKgY8mOXaoimftbvX04rmeP5xWrX566bf77x8Vt3CQ9P4MCg7pqei6cA5z6xgYfgxzy3ny4I48eb+bbuu34tvdd2dUX16b08jX5DToyfp6mLOuJUsqOTKnrCNHPq3Yv4Duj3Z7nIfy51jh3j2gR5uAfVqxmswp1bABTCkM7DyAvTqpsjV5wZeNv+g3/Ka+7fl19t5VdNeGx8DAkGmu3P48uSIogi4pT97nkc/KR6VXXnwku0G3JbtR38ZOPqMgX0Y3lnllVtrPEOhYEIcV7i6BuinY4e9Pp2CfXw6T5ziSKhTO6en6JqmkZcGcv5SN6iGe7AbvYTMbHsGOgeHHqrxTP3lQhyrvdd/KR4dklF+Ymt3Af0IV+WXIk6fVadmsdZh4NVMEuT/DHPPnaLd7U6FbW1PZQTBq8ggF++oqqSKev0TB/nFSyYUp96x4dIh4Qd6Tvae7b8NjYGD4hL3eowcocqiWbVfla378+deZtZrHchr1B7OUPIExrTDdDQreZpVy7SA3XajOcaAMAt39MJcWfB+8FmaxqXMcSaqBwjmWXz+YUqV+bOkPh34lqnX23ob3eA+shsfA8HtVLoG815is54dl1Krn5Cj5r6kyb4OCt6RqLRvTOoeCPLFE41qYI9C9lD9HoPuK3d4l2MX8OhSkLq3kSHItzInXtVG1/t+kiksz71/7bEc1PKp1DAy/ypV3qPKgoJ5BISHtqjy14Nh9WUrtJqrKT0I/Odh4lvLkgaLOMX+OBXG+APRoE8WeAPl1+n4FNy0V1Hqd7khqjebp5flH74P3uGDBh/RyUe86BgaGHFS5okOV95z6/EfXZtVqFucodT/kNOiZKod+8kdM8uTWQI75cxwogwVx3gW6OdhZfr1EzVw1sc0N1Pr3qdXqxZH0vS7VyLA9ANU6BoYP58rplXlwaFj7pLd1VS0Tsuu1r+U28KdBladCG1qFRrDXbUDcW+oc8+dY4Y5At2+BDT+3TN1eDZ9erzu9to57LaX0wnh478MeAHuBg2od8+oYGF5X5fQNC7nyoOAQViQz5cW/XpfTaEzOaeBLYDiMVPQGdt1MO0GO6hzz51gQJ0+YS2uKqNYXlQtFc2woTZ2uOK3OkBz5/F+vg70gJDy8t1hHY63FDdU6BoYHYd5FBbvCVJX3WletejhbqXsrt1HfvJ6+wVNMVPl0B2COQPdFoKsxfx5AQJcWTJubU6pmLacpoNbr+Gaq2t9aU335YdGC7x0Eap3uFVbUOkIdA8NNMHdAlYf0iug7gKny26fMGrxhN1mW02goyFbyxgyxp9xRVY52uy/b7WrMnweA3W5RrYtDaRZStb5GaHEzpin5/PRGsmjUlJmDYY8Ip3sF7BndtOAxMDBcYLG3g7wHvdIOCgmFNybAPCKl4Ngvc5r0z1FVfjRTVOWLyjXC7HVPwxzVuZftdgR6IALdVK3Ppmp9OWtxg9w6fyi9Xv/cirzDvxRB3pt1vwhqHS14DAxv5soVQcG9wvv06y1a7H0f209m5jYZ/5PTyGtAla8UVfmMEudh7s+tav4/vx2BHshANx0h+4io1tPqdJr0RsO/1+0mM2HPgL0jtFef3nYUzCHUMTBcaLGHmcAcDmXoFRQWzlT5gr9uvyV3Z9sTVJXvzBL7yiFXLqnyhGJU52i3Y0FcIAJdanGLg9x6mZqskPrW6/mdGY1tj017+d83wB4S1ptCvfsFcxgYCHJHCt96dBS+MWWeu4tMzmkyfprTwLdAX/nqanH+enH3VDkCHdvVsCDOt2FuCvVo8ez1RKlvne4T6XW682lKw8epSn5ie8EcpO+sF8yhWsfAcBLmnS12RVCvsF5XMZBfNyFq0ON7SFJuo6EyW8kb4DCVpZUa4XhThHmAV7dj/zmq885AjzbJrc8rlfrWdfr0BkPp+n1kVa9rbxjALPjeV/V2cB48Qh0DYe6IxQ79o30GD2NV7IlvfHVjzs6253Ia9UfgrPKkGi2raJ1Z4hqQozr3MtCLUJ0j0N0D9Ha1vk3oW19WwbHC2fR6/ue0BuOmaX/8/mbYY3rTvUa04Hv2wAlzGBjdhnm4eIXcE4rfwsJ7AszD19WqHsppMv4ZLPZ0qsqXVwkz2BOLEeZot5sCHY9MRaBbAXqhsOBr8N5bUMaRNdWsve1CWoPhL6lVqgdh7wkNDe8Ne48IdWd71jEw/NpedyRf3isoNLS3mC/v89ghMit3Z1tBdgOvhcK3xWI7mqthjkBHux2B7h9Aj7YB9CjxIzyXs0s0kgWvzWgw5q0XquCvEvPqvTGvjoHR3Xx5byFfPiph4ZBHd5P1uU3G3Zn1OmNyjZY8Qq+qZ7gB5N2GOdrtXrPbsf8cYe4I0E2XYMFryFLBgjekK/W7MnaQ9b+YvmwIy6v37N3dvDoGRkAoc9N8uWixB/UKv6ofOwJx4ReVo3N3GP+Q26g/BeNbV7rJYkd1jnY7HpkauEA3teChHgdEQ1o9fyqt3vDqzPcKb4W9SIS6pelyoVgsh4HK3FK+XBHUOygoCGDeK7tBF5m7s+3r7Ab+cjqrYufInFL/gjna7b53GAsqdP8EurQgdTOP7jOrhbz6pXSl4Z+ris+NhT2JbmR9RKjbm1dHqGP4JcjtgjnkymFt2E1mU2VelaXU8XAk4qIK11exozr3R7vdv2CO+XPPAx0WzIOfRfebFVRErK3V6tIbDGXpO8gsMa/uKNTRgsfwC6CbwzzECszhrGIG82vuvn9QTqNhpZgvb1vDBsW4L1+O6hynw6Hd7lmYy6HC3Z41ma5E+rpcUsFObjNCXn1tvX7l8LvHwAEvvcU9qzvFchgYPqvMrVayK4KCGcx//Uja8KwGXU5uk+HYOgpzOCFtrpst9kAphPN/dY5AR3XuGnVuWgUfQxe8dx4p05Ckaq4tTak/llqnzfn10nXDmVKHvYvuYVgshxEIytxaJTuz2EWYM4s9/tW/35LdwL+Y06hvhoNVllVy3TohDYHuY/lznN+OQJcZ0NuL5cTWNsirg2OYxs5Y51+Keek/t5hBXVLrCHWMgCh+64A5KzBRMJg/8knxndkN+vezG/WqdOgv91C+HGGOs9ux/xyBbu+CvDr0q6+qgmI5XrW2nv9w9qfldzH7XcH2MktQD0WoY/ibMr+i+E184cMb4KrlP+x9MHeH4b/ZSp6D4reFFOYzPAhzBDoWw+GBLAh0exc8VjOlYrk6nTZNqf/yke/33y8Vy5lB3dEKeAwMn1DmpjCXKtn7pRU3x+TuaKuASvaUGq59WEwCwhzz5wh0tNtlBnMpry4Vy7EhNLU6Pq3BULZ825kY2NPEva13D6yAxwgAZc5g3rv/kAHppc0JuTuMOzKVOiPkpeZTmCcW+5gyR6DLpP9cjf3nCHSPAN20WG46fe2yo1hrtcY0paFx1fZz08L7Dx4gqnVHoI696hiyVOYhXcD8qpvHxV69vuLC/NxGwz5oS4PJb3MozKd7GOaBpM7RbvdDdY5A9xrQrxhCAxXw5RqYLNeW3mDYt6q4edbA0fcONoF6VxXwqNQxZKnMrfaYSzC/I27esIyK88tym4zH14ttabM91JaG6hyBjnY7At0da4pUAU+hnqbU/7yypHnpLXELhzkBdVTqGLJW5u0wv2dh+oh1FS1JOY2GsxkU5tCWNqtU45vKHNU5whztdr8dKOOo/Q4LnpO5ZdDWpm1bW8+fXVPckvSrBetGoFLH8HVlbl7J3vehtGdGZlRdTM9tMrRk1OnYTPaZJd6BubesdlTn7uo9x/5zVOfeUedRZitWbGtbXa0la5X6lqSKixn3pzw90kIFPEIdQ1YgtxvmMZvev2l9rfp3uY0GdsDK4krPt6WhOvfnYjicDodAlwfQWQW8OAN+FRzsUq+/nFzW+uj4x96+EfZChDqGHIEebCfM+8W/+LdRmbXc73MaDdoMcWAMwDwhwGCO6tydk+FQnaPdLh+gR4rHsIIDuZJCPbWe1yTXcC/GvPTFKIQ6hq8q834Jr/3j1qw6zRsU5vq1cFpaudCW5i2Yozr3x/w5HpeKQJcX0CWow9+EmRowgIZCXZ9crX0r9tX/3Najo1fdEtRD7YA6BoZnlfnUzX8elVXPvZ7bqDesrdGygTEIc4S5r559jnY7wtwRoLdDHQbQ0H1juQB1Q0q19s2YFz63pNQjEOoYcqhm7wTz2Gf+dEtmrQZsdj61hiML/EWZI9Cxuh2BjkC3A+bmUId9YJkAdT65Sv3CpE0f3mJBqSPUMeRVzT7p8bduyqoTcuYA8/kygDmqcxnCHKvb0W4PAKCbQn2aCPW19XptcpXmhfGPv32zE0od8+kYHlHmfcesfeb6dTWq31GYc2CzgzKf7mWQB2IhXODY7Zg/R3Uuf6CbLnhvLhehnlR5+akH0p+/oQuo21Moh4HhkDIP7grm9y5ad+26qtbc7CaDOhVy5uWcV6a/Icw9D3O029FulzXQC+UD9CjRfmc5daVenVR2ccM9y7JGOgF1VOoYTilzSwetXAHzX89PvWZ9RUt67g5jK1SzP+JPNruPWe2BZbcj0NFu9x11Li0pp75CUOoXk8tbMkZNWzoCoY7haWXeCeZ3TFs4bH1Va/qGJkNzWp08qtlRnWOrml8CfRsC3R+Ablr9DmdZpNXrz60svpB0U+wjw3s43qeOUMdwDcyH3fGrq9dVt66hMD+XVqcjC8sR5qjO0W5Hux3z545AfWWVFpT6qVVlrUlX33bPEIQ6hsdhTteAjNLzC3J3GI8jzFGde6YYTo3FcAh02fefOwr1mWxMLIV6g+HY6uLmR2Bv7QGz3xUKCeqOnqeOEeBAtzQFrvOpafQFpggKgkMG+qaXnY3LbTTszajTtS3yN5ij1Y7q3MMwx/x54AHddKKcMPudHb26Z0XJuTgAuiIoGKGO4SaY91D0DgoOAZhftfrbfWM37DBUrqvXGZdUIswD0Wr3TqsaFsOhOvd9u93a7PdZwiltxrQGQ8W8L3c+CHutsOcqeiPUMZyx2q2eZ64IDmYwn/9R4d25jfpv1yt1/NJK7x60IieYozrHvnMEOrardRfqc0s1JKlGy6+t13+V+OG2u5lSF/berqCO+XSEuUWYh5rAvCeDuWizxz7zp1E5DfyHmUqeg+rMmf4Gc7TaUZ2j3Y52uxeALkEdnqP5ZRqSUqfjUuv4D6Oe/uRW2HuZ/S5AvacJ1LFIDoHu0BS4dpjfuzBlZI5S91J2g/4yFHDMLtXIYgqcHIrgUJ17qlUNi+FQnfsv0KUFr4mFFRyFOn85pUb78t2L0tjgGYUiyBzqWPmOMLd7ClxvhVCQ0XfoHXcNya7XPJ7ToG9OrtGSuWUcwhzVuRfsdg2qcwS6X+XPrS143ywWoH4+pUb9+MA7fztUhHofG1DHfHoAW+02R7pSZd4nKDiYtadlKXUpOY3646k1OjLf32Duo3nzQMmdY+852u2BptClFU/3pqVV7IS243QlA9BDwsL7wt5so0cdZ74HEMi7KoLrKbWnhffuC0f79c5t4OfnNBr2Qq/5I+UI80CGOapzBDrmzz2zIsU1nU2T05K1SsOeFKV+NuzJYbA3d7SzIdSxCM5mRXufYHoVCNWVa7YcenjDDmNpep3OuEgmh63IBeaozj2hztV+fUwq2u1ot3cFdPi7M4QedWNag7Fk0feHHoa9OTgswnSanGnle1f5dAw/zpuHmVe0i73mfaM2vnPLhibD5+vqdVroNZ+Bveaozv28sh3tdgS63BT6JHHwDBQhr6nRatOUhs8nbvzTKKGdje3V5lDHIrkALoIza09jrRH9hv1mzLDcRv3mLCXfsrwKe80R5pg7R6Cj3e4NoEtQh/s6T2hna0mt120e/tuJw2CvttDOhkVyAWy1X9GeFta7D7Pac3e0rc1p1B+jV4TsyhBhLg+YB0qbGraquRbmaLf7ruVuCnV4XSyqYEVyR9MajamwV4f16tNXbC22BXVU6QGSN2cwZ0VwffqxIrisWnV8bpOxfm2tjl4RcpgzR3WO6hzVOQLdizA3XfB+XM6K5PR1q8pa41mRHOzdQpFcbzuK5BDqfgTzkB4WTk+TiuCW/bvxtxuaDP/LqNfpF8qkCC4B1blvwdxlQMfJcKjQ0W43V+lR0pGr1Vp9mlL/7fx/Nf5WKJILxyK5AM+bM5iLc4L7jknddGNug/699UpeI5cZ7ajMA1WdYzEcwhyBbg3qcFsgFZpUq9OsrePfeyht802wh4t7uTNFchg+3G/eceCKWARH14DcJsMTWQ1888pqjp36g8ocYR7n9VY1VOdot2P+3BLU4bFeUA6T5HTNa5X8k3QPH2hWJNeri3w6Qt3P8uZXhfW+iuXNcxr4+bmN+j3JNToyp9SPQI4wD1h1DuCMLFCTMXkqcv9WFXmQrvH5KrYRylqdo0JHdW7nmkrfc0sqtVAkt3tNjXY+7OWhsKfTvd2JfDqGD1jtIRb6zZnVHhQSAjmXvov+UX1vbpP+W5gEN9/Lk+AQ5qjOXQFy2IAnUZhnKzmSd1pP9l8ykoYWA3n3Jx1JLNEIFcPbMHeO6ty3gQ5rWjErkmtbW8d/O/uzmnthT6d7ez8n8+kIdp/Mm4tW+9DRdw3NbeBfWq/k1XAQQKIXh8fIDeZotfueOhcApiIpNRz54aSenNe1EdPgDISC3UiebOTaIYRAR6D7kt1uqUhuZqmGrK7RqVPrdC/1u/0eqT+9r418Ovan+0G/eS/Jag+N6NUfnuzsBt2y7Ab+55XVWq+ebY4w93GrXQZAFyx2FdnYxJE9rUZyJcqvjDNcG3ljr64dDv5qtwfUMJkABLrp0Bkhn84fSq7VLoW9ne3xHdZ7V/l0VOk+YLV3zpv36HGVaMf0XfXt7jG5jfot9KqOzC1FmKPV7m2Ya7oFc8iPZ9Vz5CRnC+UdoeLbyL+P8syajxKHdqA6R3XuS3a7KdThfbC0SktS6/gtj3y1e4yJ9e5MPh2hLiNlHmwtby7aMP0eXvvkjdn13NsZ9Ty/0It5c4Q5qvPuAl2y2R9v4MhpO2EuhYF++7YzejK/TON2qGMxHALdXUCXFtSHrK7R8ak13Ou3J6wZida7/1rtfRSKoL5Si1pWHZeR3aA/t6LKO4euJCDMEeYWx7w6qMzZZq4iv9vBkZ9VRuJMwCVA+TkDWVPNuRXq/gxztNu9D3TpEJd5VKAl1/Enkiovr2FAVyhg9UXr3fet9ogOq11xVVCwYLUnFxyfkq3kK1NqhRY1hDnC3Jswdxboks2+QcmRw2rnYG4aTS1GsrJKQyYWuB7qqM5RnbtbnUtQn0LfR0sE6337ou8PTRIHzqD17sNV7Z3y5oqgIHhC+8Vu+vD2nDruw/R6nhVRoMUuH5hjIZxjNnt0IRTAackZbRtxVRy4ZCSrqzUkysUV8J6GOQI9MIEuQR32xlU1uraUas0796dvvlmw3oOcbWXDkKHVDlXtV2dWqbIylfpWGO3qyRa1BFTmCHMXAZ0Bi358doeWnNC4DuZSHLxsJLlU9cdsU7kM6qjOEeaeBDr8vrllGpJcyzcnlV1a2z5FTrDe++AUOd+rau8lWe2SOl/z46HYLKWuKqlWx/oWEwLcYkeYdwPmXsqdAxwn5KvIU1SZH3GBzW5VqVOoP9bAkQkFqm7b76jOEeieBHr7Uav0sVlcqSUptbqqpT8cjhWADixQoPXuI1XtpgNkrrDaJ+S8emtmrfqP6fVQ0ct5BOYJCHPZw9yXcudQAAf57cecqGZ3JqD9DSbNTSzsnv2OxXAIdE/C3BTqMEVuVS1PkqvU747Jff02E+tdgjoe4CIjoAfbttoVktU+KL20eXVmg+G8p6x2hDla7a5sU4sVgbpph2tz5l0FDKB5uknLwOsM1LEYDmHuTaDDxzllGpJUozu/qujcamABY4L91jsCXS4DZCjQAeb9l/6rdlx2vTY/mV6pudtqT0CYo9XuYmUuFcABzN1ps1uLo/RvPkf/NtwGR6fKod2OQPcW0DtOZdOQxVVaklyrzZ/7Re04Eej9sepdvlXt1qz2/ncmLrpufXXrcxlKPatqR5gjzOVVCKfpEuYwye3xRi05rm4j3orTGkGpg+Vvr1KPRbsdge5FmJtb7yupoFtd3vr8bQnLrgc2WKl6R+tdJlXtUiFcnx4dVvvAlPwjc7Ma+KPLq7h26PoUyBHmAavOmc1O11NUHZ/ivAdzKZq1beTFXYL9bo9SR3WOw2TkAnT4OzBwJqmGP7z0xyOzxap3c+sdj1mVo9VOv5Wp8xl//ObezDrNP1PreDK7lPM9mBchzP0N5h3q3DbQJ4swf4bC/LAXbHZrcYoq9Zd3a4UjWrehOkd1Ln+gd1S9w8AZHUmq0vwz7o2v72EqXaGwVCCHUPdiIVy4Wc85g/mN4+OuyShrfjRTyesWusFqT0CYo9XuJnUOcIJN6IlGCnOVfGDebr9zbeT5ndr2U66wGA6BLmeYSwu6NaazWe88v3L72czBd/5muAD1TtY79qZ72WrvaW61r/puX1xWg37fqmqtS6vaEzy1EOZ+B/M4O212WE82ceS4Rn4wN7Xff79La/FMdVTnCHO5Ah3+5oJyLUmq1jU+8p+dsdLAGRPrvSeqdO+r8ysK4SKf+L/bM2tUf4Ke87lgtRf5EMxRmfsp0NVdqnMABXx8hqrfY5o2IvcApf7Kbh27b6b2u7/nzhHovgf0SeKCok6Y9b6ihidJFao/jX30rduF3vT2We+OFsgh2F2YO4+wUAh39eothxZkNuhbFle4xmpPQJgjzN3ccz5Z3KRhNvvPKiPxlYA+9Rd3awXwFGIxnEeAXoh2u7NAh44RWDNLoDedb1n03cEFwIxu9KYj0F1stYs950Gs53z6a//89fo67uukWp7MKOme1e6LIEeYy9lq11i12WHjhglwR9S+A3MpWvkOqMdsQ7sd1blMgS7CHFR6dKGGLKrQkTWVmq9jX/nnryk7BohzS/o60ZuO4cJCuKvESsX+V4/6xfDUwhPJ65R6no13LZI5yP1clfs0zD1U1c5s9iJhAtxRH4S5aU79tT2C/R61DdU5Al2+QIc1gS7YG1bX8vyy/OPJA2/95XBRpduy3oNNoI5Ad0ObWh/xiooVws37MO/BzAa+HArhnOk5T0CY+x3M5VzVHiNCAvrMfclm7yqnLlXpozr3rd5zv86fF1y5Joof55dryZoaXfn0D/IebO9NF5jiaIEcgr2bE+FM1fmA26JnjswoO78RJsLNcbAQzpdBjjCXu9VuWaFLcHi8AVrT2oi/xAVdG3lBrH7vpNSxGA7VuQzUeTvU82HWg4asrOHJyuLmJ2+OmjVStN7tVemo1F2QO+8ohOtQ54OX/bs+NqtRf3BZpdZuZZ6AMEer3SOFcJpOOXOw2UGZ+xPMTaHOqt+LBAghzBHocgS6pNRh6FhSHb9/9qdlkcASgLqZSsfDW9ygzq0dvjLg/qSNt2bVaj5eW68nM0tsV7YneHMhzAMG5tZy5zEijDb5ic1uq/r9jb06BvPIQgS63GHu7+1qtoAeU6ghy6t5srri0lt3zU25SVDpQZYOb8E5725qU5PGuw7oOXjo0BXf7Z2X1WC4uMhGmxqCHK12b8Ncak3z1Wp2R6OFp0p9j45umHRzLUCYozqXlzo3LZCDjqikWsOZBV/umhHWp98Q0fm1d4Ic5tK7Oa+9vRAuZuM7v8hU6r5PqtVZbFPzJ5AjzH23qj1WHBrzZKO8ZrO7OzQG0l79Hl3omzD3d6BHBTjQQaXD7VpcqSPJNbpvxj3x9p2i7e5sgRzC3DF1zq6cBgy7494RKQXHVq9vMOigTW1akQwg7iaQI8x912qXRqM+4+c2u62Wtjf36thhM1GFCHRU5/Kw281VOuxja2r1uiV5x9Zcfee9IwSod1kgZ2nOOwLdCXU+KGrjO7/MVurLVoptatP8FObTEOY+C/MYEWIwm/2Iuo0EapyjUH91j5ZEFXTffkd1jkC3G+oF9q2J4usS2tiS6/iyCU+++0tgjIlKx2EzTgLdZpuapM6H3nHPNckFx5Iz6g16qFKchqocYS6znnNJmcOpaUfVRhLocZEXWtqmbHPefp+Mvedot7vQbrfcxqbnl+QdT776jnuvEa13Z1S6AmFunzqHB3jQxEf/cFd2g6FiaZXWuzAvQpijOu+szqWc+eZd/tma5rRS14FS17ELnZhCVOeozr1vt5tDfU4ZVen1+oqHc1+/C1W660e89uykzkf/akRy4fEUqs75md5S5wEMcoS57X7zyeKktOd3+capad6YKPfaXl17MRKqc2xVk4NCl6x3eN6pStctzjueMvj2X4+wQ6VbgzqqcwuFcJ3U+bjMF+7MbjBWUXXeNs1PIO4rIEeY27LZNe0QeHqHloELw/rwmZd3Cy1t9trv/q7OY/xYnUf5AMxNoT6nVNuWUq+vfHDdi78QVfoAM5WOw2YcyJ2HWcidsza1q0f94pqUbSdSM5QGncfUeRHCHGFuv83+/E4tOYXK3O4+dcipd2W/Y6saqnOH7fZC54EuqfQl+SfWDqTMMZnzjsNmXKjOBz+Y+vQdOY1tNR5T5why2YFcXkVwHX3msJlAzvwYFsA5ZL+/DvZ7vsom1FGdozr3lELvGAlLVbrSUP3b5E13mo2E7e3gsJmAzJ2H2MidM3U+6MbbR6QWnUrLUOq1blXnqMgR5g4ocwDAxAIVG+d6VovK3GGlLtrv4/NUFu13VOeozj1REGdFpXNLC0+lDaDs6UKlhwZqLt2RNrUr1Pn9SU+Mzm0ktUsq3aTOixDmcoe53IrgADhgGT9LYX4OYd6tlrbN4ilt5ko9INU5At1r6tzs4Ja2VKWx5t7VG+9AlW4/0EOsHcAiDZEZcP2oESnbT6RQda6ZWerCITJFCHKEuXNAZ7nfbSrywm4tOY42e7fjFEeV+h4tiSzosN8no92Odrubhsk4oNI1S/NPpPanDOqGSlcEojo3zZ33kdrU4MropnEJN+XuJKVUnRunIcgR5l6Bubq9qh1gMz5fJRTAYTW7y+IsfSxfohdID+cJUEd1jurc03a7BZVuTFWSkuvHTrsJVXr3c+eDevYfNGzFt/vmZjQYWrulzos8vxDm/pc3j92mIZPppvEshXmzDmHujpw6TJSToIDqHNW5p+12c5W+qtbQOv/rfXMjKIswl+64Or8idz7k9ruvy9lh+M/SKq0eQY4w92benMGcrhd3Y2uaO+OMFgrltO196qjOUZ17A+gmfen6lHrDl1ff/uvrLKj0gOxLt6bOQ231nQeHhg1d8NfS2MymtjOzSjn7i+GKEOS+DnK5wDzOJGc+Ll9Nfk/V4wkN5szdnlOnF0yQ0hjjIfsdgY7q3BrQ6YV8W1K98Uz8n/KiFMHBQ0WVbml6nAT1YH+GutN95wOuu+XarAb+zyurdbxcIe7LIEeY26fOY8XWNLDZz6PN7rGAxxqm7o3LV7lVqSPMEehdrQXlWt2aavU7Vw2/7tpAVukKJ9R5P/EK6OrYVz5/IHMnOT63zII6L/L+moYwDwiYgzoHZd6MrWkeD2gHBKXuTvsdgY52e1cqne4FbSnKtp+jX/nHg5RNQ+xQ6X6ZS3f6vPOeAwaPWFejeml1Lc9NlxHE/QHkCHP7YA6ngoEyZzY7tqZ5LWD6Hrgj46ClDWGO6tzD6nySeF764kqdZk2l6qWI/oNHiCq9f6CpdKfOOwd1/ptlG0bn7CR751F1jiD3f5B3G+YuBjqcjTw2X7DZUZnLoFCOayOPKjkhp45AR3XuYaDDovtnW2oD2XvPqsdHA6NsnMTml1B3Wp0Hh4YNTytvzk6p5S8lIsgR5h4EeZzUmiba7Jgzl5f9/rsmoaXNFfa7bGC+DdW5XHrPbap0+ncWV+kuLS9qzgZGWTkv3S9VuqI76nzwrfdc/+geUvlIudaAIEeYexLoseL40Rewml229jvMzZ9U2P1COVTnaLc7mktPKOYMaxtJxcBbfn29SXGcrfPSTSve/QLoDqlzuoau+Hb/vHSl4dyMEoS4P4Ncfja7mlVUP4dHoMo6jqrbSK6SI2O7Yb/HINDRbndwTaArapuGrKg1nJv3r6aZJsVxlgbN+FVxnL2DZHqJY17bW9WCQkJH5Oww/GVJpZZDkCPMPafMNWxzfR5tdp+Ik1wbyann6EbrnFJHmKM6d1SdS2tmKcel1Bv+DKwya2Hr48A4WJ8EepAjg2Tgimfs6qd/kdVEDs4u4RDiCHOPwRyK4MBmx9nsvqXUn2zkHM6pozpHde4s0CewcbAaskZJDv4m5bm7LKj0Xv6o0p0ZJMPs9vTS81kra/iW6QhzvwS5HKvZJ+RrmM2Op6b5Xhy8ZCQblByb4heD6hyL4Tyg0NmgmQpdy4ri81nALJFdzgya8dtWNTZIJqLfgJG5u8nW+WUcjxBHmHsiZw6W7aadeJ65L8fPl40kqVrD1FNXY2JRnaPd3h2YS4vuZfzaRrI1tFefa8UWtoFdFMf5LNTtLYbrY1YMN2TxPyqmpjUYTswo5higEOL+A3I52uzwEVrTEOb+Yb9nU6Ue3YX9jq1qaLd3F+hScdzyWuPxhA/yokTb3VILm1/Y7s60qkFhwbDsRv27Syq0KoQ4wtzdMIfN/YXd2JrmT7Gn1cigDpuuJaijOke73VUKHT4/q5RTJdfq3gJ2mbWwOVIcp/AFoHelzs2L4a4ePX3Z7dk7yc45pRwC3I9ALseceWSBhmxGZe6XsfOigaypEqAe40aYR9u5oswXQLDAOXAizOVht0sqPZbuJ6mNZOftiStvM7Hd+/vTfHd7i+H6mBfDpRafSllTw59NLOYQ4ghzt9rscNY2jnP139hHlXpa7ZXV764CuQQxT6pz6WCaSHGmOAJdHkCPKtSQhZW6s8sKT6VYKI7r4+vFcebT4azZ7b3Ni+HouiZ3B/lqQRmnQ4AjyN0B88kSzPdoWQ8zhr8rdSPJqOPY5h9d6BpFDr9r6nY1WVHFsWl1L+7WkZc8sF6m6xn698B5gL8/qcC6YkeYux/mpiuhmNOlNZEvKcOGWyiO692FSvcZoNs3GU6hYMVwM//v32PSG9sOzizhENwIc7coc9iA4BjO0zgBLmCi/ryBrKnmyHgRgN0BOsAksVhN/nmUJy26NqIzEqL30DLQxdOX7QX6d/9+hCczSzQMJlGozr0KdFDp0XR/WVFPfhq74Y3fCMVxCnuK43wij94V0E3tdlYMp1AooJBgyLrKi08urdSep1c7DAgIcN8EuVxhDkehvrBLR5pxAlwAQt1IVlJlG1noPNTh5+KK1OS7E3pZ3Kcvj+lJQpEAHSyG8y7Q4fbMKdM2rylt2QAsE5nmjO2u8DV1bmq39ze123N2km/nlHI8Atx3QS5Xmx1uF9jspzisZg/UaGwxkNRawX53BurwcxsbteSyXj4XhE/t0LJ8ehSqc6/Z7dKigoFP20G+ddB2ly3QFVYOYzEHuunc9v4K0W6f9c6X45KVxp9mlKA691WQyxLmhQLQN1Nljq1pGNXNBrK6WuOw/R4tKvSvjvOyuj9fHdeT+O0dRXKozr0DdGa7031maW3bvglP/vE+ZrsrfNt2V3Sh0MPNDmIR7PagYLAmrs6sbt24uELbnFCM+XMEuetsdjgGFca5os2OIUXpWT1ZUqFxSKkD0OH1BD3ucooKeoGSWKxpL5BDde49hT6JioeZpdy5pPLWx4BpiqAgR3rSZQ10a+rc4kEsYFHk7CLfzC3l9AjyAIW5G3LmcNte2q0lZ7A1DcMsKkGpV3HtcLIP6GpyRmadETXnBaBPRKB7FeaSSp9apNGvFWz3EVaOVbXHdpf17HZrdvsAyW6fvOmTB5KUxj2BbLejxe66FUOvlKdAARyF+XGsZsewpm7PGsjKKo3YS2wf0OXm9NSKQJ9QgDCXA9Cjt3FkSa1xz6SN790vFscNsnGsqqwL4+zpPb/iIJag4GAoHLg6q+rS44sqtOcC0W6PR5i7/ghU+vHZnajMMbqOwtN6srBcBGIXQIfBNOcR6KjObVa7M9v9zJqS8znMdhcY53OjYG3Z7aFmvedXmR7EAnZ77m7yzdwyTh+PIEeL3QU2+wtos2M4EPmn9GRZpUZoafNBoE/3MNAjsRiuK9udTxGGzHTHdpcd0Luw21nBwJD4F78Yk6w07JoZIHZ7PMLcLTCfLBbAvYQ2O4YTUXTGQJZWCsVl0Qj0gD4mtbtAj9nGkaU1hl3Rz/35QcF2D/Ip292R6nYTuz2E2e3rqy5uWFyhPePvw2TiEeZuhTms59Bmx+im/T67VEPG53eGOgLdywrdB2AuAT0SbPcS7nRSyflsYJzIOmdsd9kA3Zrd3n7uOb2TYEVcnbuH/H1uGaeLR5AjyJ212enHzTtxAhxG9+Ob43rySJnQ0haNQEd17rztrlu7g/xdBLpPVbsrbJyuFmbWe37FMJl7FqbfmaJsq55ZqvU7dR6PMPcIzKeKB63g0BgMV8WWk3qyqELIqUcj0BHmTgB98nYOhsxU/2pB2p2+Vu1uz+x202Eykt0+ZM13excuqtAemu5Hdns8wtwjMJ8sHrTywi4c54rh2gBkbz2lZ4ewjC/oOO4UgY5At9t238aq3Q8t+XrPIgZ05213hVyK4axWtweHhoEFMTi7Uffa3DKuFSHupyB3ozKHj8/jBDgMN8aXx3gyy+REs0AHur9XtrsK6O2z3Ys0F1NqtC8z211gnrntLo2ClXgpW6CHWDkqdYA433Zoz/CI6zJ2kB9m+aDdHo8g9wrIYU0xOc8cj0DF8EROfX6ZAPUYBDqqc0ds9yKubWU9+R+F40hgXhez3b2u0BV2TIezMLtdaFeb9ea/xy+v5htnlPgO0OP9ePkCzEGZRxZQmO/WkpMcwhzD/WFsE6AOx5QCZJq1gQl0VOdOTI3bzpF5FbqGKa/8Yxyz3Ttmu/eV42x3e9rVTO12IX8eEsry52nFJ9Pnl3HH5T4dLh5BLhuYg+W5eZdWdpuqs3GGMxLlBQMpPmsgJWf1pIH++6wP3jetkRCNwX+hbqBPyVdH9awAU26z3P0a6D4Kc9PDWhKKNcdXFZ5OB+aJ7DM/UtXUdvdq+5qjdjvLn4eERwyFj1k7yUdybVeLD5AV5zM2u5p9hKEx53wc5sc0RvL9CT15ld6XzDqOLK/QkAWldJVpyIpKDcms58hre3Tkx5N6clKGKQW4RQcuG8mP9D68u19HntuhJU82aMnjdD1L//3OPh35H1W0+y4ZCe9HtYpwv/95RE9a+cADOs5t7077GqdNaSIfQc1YcJjAPit5dK/b7l1Nh4uwcBgLWA5DfzF9wejkeuP22TLKn8cjyGUHckmZTyxQkVd8vDUNVN63FHSPKjkyp0SYSDY+TyUceyku+Pc48XNz6fc8ptSSHyg45aJ+f1YZyQcHeJJRS+9DsZpE09v58FY1GbNVxdbDdMG53DMpYFJrOPJHCnyAv78EXKC0yewayx+B7g8wZ0DPV5PYInZYS+FND0beKubRB8u1fc3e/Ln5dLghK75Szl5cwe1J9PK41/gAXL4Ec2hNg7ahN/fqZFeM5Ehc1rfR+6CloBMgCPCGMbVTrCz4mgR5qLL+kEL0Eu/d+1B3wUDSKKTh9kXmCysGCn8Kr1zwuUn0axPzhfsCrkPFOT/24/0c6KjOu6fQo6B9rUSza/7fKqabtK8NdOKMdIWngB5kR/5caFcLCx/KTlerVT09r0zTPK2IQ4gjyG20pqmZ/QxA9NVQ0dv+3n6exMBm1QXILYEdNpz4IjX58yGecF7iYnWzgYF5Qp5wQRJb2LEm21hRTMGryNxSDfnxlJ7osY4Rge4nh7DYv9j+ey6l8vJTwL7g0HBbtrvX+tGdyZ8PDhFyCIPX7SZ/m1OmbYtHgCPMreTMYZDHW/t05KyPV7NDMRVUSEcX2g9y8wUXArBp//e4nlVdexoYyyo0ZGKeAGl7YW66xlKoLyzTkHJU6j4FdFTn3V/jhTy6MamJfGaSRze13SWge812d7Rd7Yr8+ejo6aNX1hoKZpXq3Ga3I8R9E+SCMqcAyFOR/6MwP+/rBXBqI5ldIihVWyp8sji0xJZ6h80HZoxDVbyn4iRnJI8qtSzX7yzMmQ1fKOQTs+o4n6ziR6AjzLvXj64l86v0BaMip48GBio68ui2bHdZAt0kf84Oeh+66KO8uAVlmobpLuw/R3i7GeQegrl0BCrkzC/xvr3xg7384i4tBZnKIqjhc6DaYUFqIc7k/9a+H37X2/RCR6X3zO3/+rhecEus2OzweciVgxU/Pk/4d3SBZajD5+H7oDAQkS5/oKM6d+UYWA5cuoY57+fFMaALLJRN+5qj/efSuFewGoas3XYiY26p5tg0J/vPEdj+p8qnijnzKRRsb+7z7QI4KQ6pjPRNrGHq1BKc4fNgZf/pgI7kndKTLXS9/xNPltDPWbsIgA0ipZoje1vdXzkOSvp3jVoG4VgL6hzgDbcRKt5f3aMlr9GVXQ/vabFgzgLU4Xctq9T4zRwBBDrmzu1ahbDHqY+tyD+ZwfrRhTGwzrSvyWTcK8sdCAVxGY3Gt+eUabl4hDeq8naYq8nDeSqWMz/nJ5s9TBezprahChxg3tRiIFoTBx3+XXfeSNZTSI6nUDf/OdhoZ9DnJf+U+yU6XDRA+1lUgWWYz6Zf+/xnnpzStBE1lfOcoY0NXfniME/ml2pY3t+S9Q7tbVj1Lm+gozp3vUqfUqRRr6rRvcEK48LCh8kpj+7wuFex925YSJjihjV1xm9ml12ZP0cgBx7IJZhPZvlhwUq+5Cdl0FC49vpencXcOUB+domG/HDSOpQLThtYr7ppIV2seNrXJAp6gKa7H6ris3ry0BZVJ5jDfZpKb8cHP+muuBgxjffo12ILLdvvAHRwJXg8IA+BHgjqXAR6bJGWLKw2fEk5eB2wkDLRnvY1rwE9xFb+XBEk5M+nbf543MIyriKxRMvAgUCWGcg9qMqnbhcANVW02Vt5/7FhdRRWTzdpmUq1VNyWXsPZHFBynKreDfVaqoRV7TCX1kMMiLxVmLoqf/53etFgCnQJyOAurKzUEOV56zcApsStgja3/M5Ah1w7WPlq7GGTJdBRnbsH6DDXfWaJpjzmuU/Gsjx6kEN5dLf2ozucPw8KCWX589Xf7Vs6t1SzP148/xxXoMFcADisWFGZv+kHrWnmAZPdnmzgLCp0AOIGJWfz51t0beSZHVo2NS7WAtDf2a+jf8N9jxn0u4PKhh5yS0DPqefIEbXR5gXNBvo90K5mDnSw69fXan16tgACHQ9hcWaue3yRev+Sb/YuE+e6y6If3an+czF/PiS9qvWZOaXchbgiBHqgqfIOZS4UwI2lSg1a0y7x/rexg538lBWFDkCDiWu24jiFJUB/fL66E9AfpJD84ICOHYjirgD1/4EJ0CebAR1m0B9WWb8BavrzOfVa1n7YqTAOfh6BLkugozp3p0pne+CF1WWXngEWikz0eh7d4fnt7EYrekARwLCU+rZP55Tr4OB3BHQAgnyq2JoG1exv+SnMpRz6mzZy6FBs9vUx6zl0qHqfWaJhm6wpzCeLY1f/cdi9U9cA1V8d58mDWzoDGYAO/fBFZ6xb7lD0BoNkJlqw3MF12LxD59ensyHQUZ1bHDBTrCVL68hfRIVuXhjn8bnuTvWfK4KCoER/2Jg1mfcsqeTyZpTpMH/ubZB7FOYdNrs0PMUfbXbz+N8JPYkptNx+BqBfVm55choUo62qEg5vMVfnUeLFQIEHqtxh3Ot4C/Pa4f9Q7PZUIxyW0/k5PKNtI5t2aNn3WJr1Dnn5L47oiQEFuqyAjurcMwNmZpdyP/5q5vJfAhMVCsZGZ+a6e6//PCg4BKyFoXPe+Xrq3BJVTYI4UAaXf4PcXJkDkMblq8gbe/2jz7yrOKYyMrvaWh86wG1OqZo826Ql/6Vq/d9H9WQT/TdMlos2mRxnumBjgFPMfvLACWYH6d9YVskxRW5pSAx8XEtvC7TQ8QbhFLJKeoECVvsUKxXu8Dmoct97CUvcAx3okwIM6BPFATPx2y7XJL79zRRxwIzUj+6VATNO5c/F5P/QFd/sXk43q5+wIC5QQH5lAVzMNs/a7HrKDKikhup5KDK7yAv90p6ahQ6WOBz5Kg1gsTry1cRWl3q1LcE8VpzpDsVmR1XuvxMt9PF6fqeWVaVbG+caLar1mMKOZU2ZSxXucCTsJcyfywroqM49pNJhwMw21U+Lv9qzHJjYRWFcmLeBbjF/LjbRD1ld3rJxVinXjAVxHga5F1W5ZLNDdTsoc09MCINBJ1upaoSCO4Df6ioNWVqpIWuqOPJ4g5a8t19Htp/Re2SmOMxyn1/a9cEspjnyWBsLgAk94HACnTtdDrjo+fGknsyzMiDGFthtnbwGr4fK5u4nzy/zhOxpNZKycwaSf1rPVjn9vT9R5a/WI9AR5vIE+vgCti82Ly1u2SgUxkUAG692Io/upYEy9MYGhYYNhxu/sk7/7uwynRHz5/4Jcks5czZ/vEBFXt3j/pw5HFP6ryM863+etr1DJZoPRgHwwNdhZCmAn3ezZP+eghEeixg7od7VYnY8vQ+/36kj59zwmEJuG6bcJWxXdwlze1d0gTAQB4btdEedn9QYyYcHdSSlWkPml2nYaN0p20D1aEgi/TcU662jz+sX9HUQKONlEei+AXOTwjjjomr9u8II2PDhJkD3eB7d0YEyg3ooFKwgbuCQa25ZVKn7z8wyPuAL4uL8FuQSzDty5tBnDsrc3S1KoISfaODaTwWTIDnVbJla3dHibPE/0IuNFjeqXc5ImCsgqdnYbsC8XamLJ9I9t9O1o3IB5t/BgSyFroU5tKqlVnMsL+9s+gSm500vUrNCPbhtUaIrIB1oEyV+DjZweGwWl2tI8RkDAl2OMA9QoAuFcToys0z3TwrRGygbh4uMNM2jS0B3ez+6wwVxiqAgyBEMm7Tu9w/NLb5cOL00cCfE+SvI48xALtns8duFU9Na3FwAB/3QG5RaupkLPdNTt1lf5iBlbVj0557boaUXBe67nZd4Qj6gUIf55zFmYLcE7Mn22O8FglIH+90V6QODaLPDyFlLhXCTnTgyNUq8KEinqnmPkwfKQArl1d06Nus/UgR4TBcrWux3h+ccLqZa/LgI0yeBHoAwl4AetZ0ycNulvIfWPHEfq3QXGOmVATPWgG71QBaxwn3Ygo/yE2cXX66PL9YiyP0O5OoriuBiROAAaM642WaHPPLjbCKbiqlKR2AuLSnvC7PkL7uxYM9ghJY0A8mlFx9wIpkEPElhmipNuD3swshagZyYQogWof7y7u7VJzBlfkJPZharu4R5dEGHGjYviJPy6ZHighY7qGU47eTr4CJ9fjfTi60o8XGJKXRsTSrogLrKTwvxnAU6qnMvrUKO7lWX62d9kJ8IbBQZKfWjO1IYp/B8QVxoGCT9h67+8XDq7BLNkUApiIvzc5BbUuVSzhw2C8iZt7i5mh2msUE+dUKebZhLFnusDagLMFXZHJbiqoCxqPB3oL1rBgUo2MgA+IQi4d8AVSjee3sfT1ZUcIL1bQHm0gKlDqmG53ZQqDuhRAHmrGe+wLbNLl2AQIEj5KpByU81qcyXLoymiu4MFCQqL3Tv8fz4kI51CTgD83aoixcoXx3TI9BRncukME59ZMkPh1PFo1SdLYxTeGpCXD+xWf7q4PAIVhCXXKl6fm6ZVjUVQe4HINd0UuXt1ewUSK/v9YzFueeikcwq0bRXfncCuQgYABAUwU3tAuxg0UJf9WG153qkYWb67lYjGzADPdx7LhmvGOlaRhX98gpNO9BirSwJxmBNO1J8qBdtdriIsAfmcNHx50M86zmHgjxQ9f9H1e9zO7XkWaqk36LPPRTUWRo442g00IuBSWK+3Bqso0zcAFvQhzHDS8o1pP68AYGO6tzrhXFU2F5eUnr5eVbpLjDS1slrLge6UxPi4MYqgoLgxg5fXmP4cHa5fxbExQUUyC3DPFoE5x/2Om+vOqTO6Z/45CDPVLWl4jcJ3NCy9tpuLfnwgI68RD8ur9S0K3ZLhWkPb1XbHMnqjaijGzYUlEWJU9usQV0a5AJQt6elDZT59yfsy5nDuNlZFBp/+5n3yLGncKEDZ8LD7bKWI48U7XSw9WcUS0WYlnPs0eKxrZAG4gwIdGxV824efUqxlsyr0L3PcujBIUz0mp285tZKd6cmxCkUCsgNDL/5N2NHLyhVfznDjyrc4wII5HGdIN5ZmcOm+SIF5jkPtQpBvvjRBm372dyWYA5T1w5cMrBhMpwehsoYSd0FPTspLKrAslJn1jVVmxdkVkRV1WwgSVUi4LqAOmxkUP1uK6cutaZJp7/ZUubwdXA44AJKa/TURYyRpR8sqW5JlS+jF2d/PcSTxhYDu+iB0+HmlwpHtlqCOlTHr6KP4a6LxoAGOsLc+0CPKdLB6/tf1948+lazSvf+npgYZyt/HmplQlxHhXvapodmb7uYn1CqQ4j7FMwtQbwzzCFfCja7J88zh/YnaEuaXNi58A2gBtA+zRnZgBS1QZgQJx03WkM3wGVibtrSWeWw6ds6ScxbAS1YzH7vAupSTh0K5SxVv0s2e1d95hI84fmF41rbPHiN89ef+fYiQUvKPKmaI/stjI8FsC8s41je3VKBXCIF3w8n9AEL9EgEuixW5HYtmZLfkj9+7bNjulnp7pGRr1KFOzthLfG1f8bP3HaxKt4HZ7gHHsS7zpWb2uxQzAVVzJ5WtDtbDUw1mrepwcYNhWZ/P6yjKlQAOYM5XSoR6gB5sOAn5KssHpqyiF4o7GiRpy8LefZkCjNpvKotqMeILW2mrolks88t1XSpzOGxAJv9MwpXTz67cMHx0i6dRfs8UrxNtTamzUEngTQm11zZw2MDqp43ItAxd+7FtY0jk/MvVsVRNoq2+zArR6m6ZQSsIxXu7QVx4vFww+Z9XrF4RtGlPXE+0rIW5+0lc5BLMJ8iKvPzXpjI1USBG1PQkT83rVZfUKYhBaeF07wA5jAJDiChogyQBtx8fYxvL5q7otq9QPj5OhkXT4HDAFCPtMN+h68/v7PjOfovvd8zitTtuWlrQJds9s8o/LQefijgOdrYqLVYDAdQhrPYbcVJTRtZV6sl4/I6q3u4X+/s4/1qPKy9QEd1LiPbvZACveDSnhmfVS5mrWsCKz02AtbRka9Chbsw1m7Y4u8PZcwqUR+Xa8tanFyWD4BcstnhI6g/b51pveOiQShkK+zcfja3REO+O8ELdjuFg04EOljvUi/yF4d5i3l0+NwjVL12t93K3VEiVr9H2mG/P7xVxcbE/ucob1fOPFKEObPZvXDfIHXzuLIz0CW1/jSFfVf1FU81adkgGkvDZmDYkT/1pMsZ6Ahza3l0GFmsOj7n20MZ7JCWjhGwjh6l6taRr6ZAh8HzcCOHLi0+/9TsMq5VTkCPQ5BbHdlqC+YwNCahWDg1rYX33qa475KRVWebz0eXBrK8slvLTnXTGwWIXxYtd/g/zAP/XSNHFVxny50VW1VYzs/KEepQKNeV/S5UqavaW7vssdmhAK7NS0+viqrnp6wodPhcSg1HbPH4qNrIDuIZb5ZHjxJ/HobMaAyBBfRAsdp9B+h0vyniWucWnn8KGCmy0mOV7g5XuItAHwE3dmGF9vVZZXxbHAJcVjnyzq1otpdkswPMz3n54AuwVdNqhGp1S0Ni4IQzOKjlonjR0SauM5yR/JHe/jgrh6VAXh0muZ3hfGPDl+z3rgrlJhfattgni7CDynJoTdN58XoGvBFwfyKt5NChbgMOvLEW/z7Ct0+yM/9ZcGQ+p/fPn4bGdQX0SMydyxLosUW6tlkl2j+IQB8hAt0jI2CdADprWYMbOXJeGfexp1vW4hDiDoK8a2UOQ2Ne3aP12HnmtgIUlrTpWxoSA5v5DNFJqDhnYENKoFjqZarcYThKlJWTz6BX+aOD3gWaowH3b0WFxmpLmz0z1+Fn4+j9/+igThYFY/86qr/CZjddUMEO7gzcb9PnSU2vBL49rmd96RPyLf8cuA9wyEsgVbmjOpcn0OGQFnpx+jEwUmTlUE8D3e4Kd7EHfcTtD8fcNWv7xf9Mp0APOIDLDOKdZ6/bp8wnizb7mxSOcoC5FIWn9WTado3FITFSgdv4PAFUC0o17HPjxLyqpe+Hi4NECvv6C7634cMoWbCZo8zsd3tgHile/Hzwk44YZfL07r1kZPC11IceLcIZbvMf9+vI/yjEvzmmJ6/sZr29nYrhpJ+BnDpMAjxwOXD60LEQTr5Aj6JAjy1o+ddND4y5E1gpMtOZSneXAt3iDHdFUDBU7Q2PTN80dkbBhbxpJTr/h7esQW4/wM1tdrApYbznOZmdLw2tck81cuyoTFvnjEtHpU4utP09AIkPD3i+qttVAcNn2ES5go6z4LtaUewiRmhNk1NaGSzxzTuFSnVrp6vB8yWdwBYp/nuSlfGv8D3j6Pd8cICXzUWLvwId1bl9a9I2LYnZcv77+5Zk3A+sVAQFmbeuuWUErLUKd9sta0Jf3fCEVz6fNqOwpSreCaDH+draLmeQOw506YhPGOd6kZfnLrjzooHMo+obNndbh6/YWrHiHHdoh3LnEaqeiPoLRrK6ShisEt0F1CWLHmAux4uYQyojG+k6Mb/ro1Kju/j6g1tVJB3m9Kv878S1anohl1DUGeiozuXeiw5Av1ActfHdaAb04GB7gN6twjiFsy1rQSGhrGVt1kfbFs3YdnGXrR70OF9e2+W41A4rcYs2u3jQikbminXLKQMblBIJ56E7CHNJmS+r0JCKZv/IrVbS+7GqUtN+tKm1I1ABlh/sl5cy71TgdlTPWugmOXnaWpQ48hVy7sVn/O9gFggYfTuT3j+4n4EIc18FOutFz2tpin936zyhFz3E2dY1twMdjoRjQJ/9ec2aGdtaD02lQI/zB3jLFuKuAblpnzmcD96slb+iAQsV8qgrKcTgcJWYQvtgHiluBpBX3U43e3+qfC48I0zSs6TSJdh96MXWNEes948O8Oy1PT7fcZg/nKdmJ/LB0am80S95zs6M/8MeHYPpxAJU574E9Nj81kPTP6tdIwA9zO2tawoHetCvaFmjQB/BgP7V3owZRaoTU4s5hLhHit26t6SN8O39OtkdUGIrQGXCdLfNO3WsCG5SgW2YQ3saFMC9TjfCPa3+t9Nf4NtYtXeUFaDDx90+cr9hhgC0osH9eWCLyi61Dq4LfC/M+99yUu93J6yZB9S3vLRbR8bmC8dzojr3BaBrSGzB5RMJ/9qTwYAuMNOth7Q4ciiLKdCHBoeFM6DP+eHYhhklmuapRRxCXCaFbraUObSmQc5c7aODN2Ck5z8O82RhmUbom7cAc9js02tBlevZJDl/DHBWwFK3dPiKpNr3tvoW5WCQzsZGjt2vqC7OSIcKebi4a7hgJIESUOeyeZeOXZBPKMBCOF+YFkf33OZp3xzdwIAuMHOoTIEecQ3cyLkF5zfNKNWqp2Ie3MW2umthDrln+N1Qzd6i823IgbOQqxSOGjWHOcx9f2irinx8kPd7xWYL6AC+Pa2+J1vhnPcvj+ktDp2RYA7PM6SLdIHD8iue95dhPsM28VQvVOfyBvp27nL8j2eeEoDOmGkL6GHuBLrVHnQG9PCeAtBL1K/CUJmpCHEXjmi1bxiMI8p8YoGKze72hZx5V3GKayPZ9UKltyWggxX7ySEdAr3VN31omOJnDeiTxElyMGAmUOM0fXxeoEr9oTzPKHVU590ZLqM1xBe0vgisDA5vB7rbTl1zFujDFCGh10Kz/OwSzTuJ5V4E+nbfXt1pO7MX5qzPXGZDY7oL9KyugH4Qge6rQIdZ/Oxo1QLLQIfz2788GrhAZ04Gff6f2aEl4+mFuruhjjB3HugxxTq6J6neZoNlQkKZCLYAdJeduqZwZqgM/Xa4UXDjbkzc1vpRgjj2FQHe3QNTXG+zg5qBArjLvP/kkhHo/g30E1aAHo1AvyLOaiGnrmXQdZf9jlZ794AeTYEem9/6EQXqjQIzFc4Ol+kW0G32oPdQKKD8/tprRo68fVr+hc/iS3mEt935cfMjTN2jzNkwFXr1/kc/sdkR6IEN9GgEutXH6vcU6g/lqdwCdVTn3VuRRToSveX8ZyOuvf52BnSFoqtz0UNdCXS7hsooFEEA9Gt+GTPj3vitzV/GuQLo2/13udNSt2azj89XkfcP8H5js8sF6NAC9+khnuUwn2zQko2NWtYa990JPTvpDYHuQqCbwRyBbt1+f5K+Dh/Y6lqoozp3wdquI5N+PPevWyfE/AqYqRDEsK3hMiHdORfdmbGvQxRBDOgjHl75xLiEree22A307YG1LKtx98OcVbPvk/8EOF8BOlwUFZzSk01NWrK0QsP64NmccbqBjqULKq9nFqvZ2eVvULg3tBjcPk9cLkCHwTWuvq8M6PmeAzp0cELFvC93OMLr4Sn6+mxXhqjOZQP0yO/PfvvrWSsfYEAX2DnEiWlxLlXoUsuaCPRg6KcbEZn7xmQK9OK4El3Awdp+iHtuxYpnhf/xJx1r//HX8CTQm1qM5LkdOjZalG04JjPUTU88A6hPyBO+BkedwjGl7jzsxltAh3sEA2u+PaEnnxzgyR/38+SdfTw79ObLYzxR0ouZ7o44MAV6tJuAfkxtJFtP6slfDvLsCF44qvfNvTxrd/yBfv5nHzyx7Ti9T8/BgTf5KgZjVOfymOce9f3ZgofWPjOJFcYFBbt1WpwT56BToAczoF8T+bt34ynQy+OKdQEOcbXD54+7A+YPM5tdR1p4/4W5J4Fe3Wwka6qE41sjzSBubcFhKFHi2eNgx7vrsBBvAB3Om3+iQUuWlGtIYrHgBE0VH3f4Nxxtuoh+LZM+Nz+e0ncb6FFuAPpRdRt5dbeOjRGeWSS4LdJFGXyE+wOP68oKjl3IHfIxsMN7A15393fTfkeYuw7o0T+cLRv3+DtxDOgCOy0B3dpwGYUjUHcG6EMVwSFMoUc991EiBXp1IAJ9qs2zxz0Lc6k1DQrgVHr/hrmngL7vkpEd6BIpwjHWwRUlnnQG08zOucEt8STQIUf73k88m5kOoIXHnR1pWiA4E1EFHf+HjRlOtgO4w6jSE2qjbICef8pAkqs4dhQruClwP+DvRJos6f5JX4cUy/9O6H3qSFZ4bTyqFJS6M1DHvnOXK/SKh598bxqz3DuAbu+0OM8BPfqlv81OyGuuDySgT+0S5mqPwxzGub73k+9PgJML0E9zRnYUJ4PlNsdh3g51+vMJ9Dn66yHeZ4EOR5xu2qEVhhPl2z7G1LQiHb4X7n9WHUd2XzR4FehwdOzffuZZ2gRAHSmmTWwtuO1wG8bnqdmZAH86oPOpw1/gmODfNWnZxZUjUEeYuwHoP5yrfvjpjxMFhR7SnfGvbgP6Ncxyf+Fvc6Zt9W+g265Q9x7IJZt9bJ6KfHSQDxiYewLokP+GxxYUtjVYM3iawNTa9wEUIKfecMHgc0A/TGH+WAPHNtxIJ443lVQ7HPW6z4GDYlwJdFDWcEE1vUiAeVSBfTA3dR4AilPF4Uy+FEfVRvKEaL9PwkI4bwK9fuzzn80WFHpId8a/ugzofcU/zsa+BklAf+Vf86dtPd/ob0D3JqQdUebwZviUKg+NgQRU2AI6rPu3wCx35zbfoxQmUK0ebSVnHiNuQjGiehfmi6vaTz2zBP7x9KLrxV1anwL6ZcpLKHiLchLmprPXAYhQgd1qZ22HTaDnOwZ0yPvDQT7jnYC56ZLSCHmnfKtdDsborqvjyBg7+tRRnbsT6H+bYwb0wbIDeszrXy9KyDu/y7eBrrYyglXjdQVuC+bxdHP58IDOb08T8xbQYcOeLp4zbgnm8fQ18RKFs7LFyM6pBrDCz6yvs34RAMoQVOr+S0afAXrFOQGEE/JtW+uSCo/uQqmDws23E4ZWgV7gGNDhAuK5Hdr2PLkta709n24F6JHi92XVaX3q2GGIkxrIqXNscpk1qCPM3Qj0H5sbx7707/lWgN7XE0C3Occ9KEQE+lvfAtB3+x7Q1T4Bbms2O7zxPjigCyib3R6gx7oA6NDCNEW00ztZ7HRBesPS2dsA67Ra4QQ4c6BHi7n0r47xPgF0cHxgXDCkc6KtgHyCCL9HKPQXlwv1BuPFvLm188tz6HNmz/WnRaAXOA707WcM7XlzSzCfJM4SmFuqIanVHJlXwtH73HHfzKEO3w97R95p3xtqc/CykUEdlPokbFPzNNB3jafi1wLQzQ9oiXBVDt3S0akR4h/p0xno7GCWa6Lf+mHZtLwL++KKtT7cXqb2GagDsMbRNyTkBDUBPCjLHOixJqu7QN9AN70YC0obPpdcw5ETautEqjynJw/Sv21J2QNA3v/JN4C+t9VIlpZrGKA7wbwAXoNqkluvZVPztEah6AyeE7DVrVn0km19XN3mMaD/YY+OPLRFZdFqn8CK3TQk75SBpRek+1F8Rs8eV0tQl1T6E0qtT75vjlOlDhedD5pBHdW5m4G+5fzu8a9/sxjGpVOgX2vlgBa3At3GwSwdQI95r3DVtPyWA/IFurqLSW2+o8ylanZQiGoDCegwBXqsi4EO+fMoK3b7C7ttVzoDZBOKOhfTSRB5c6/Oo0Df7STQC04byJitnW10qXr9d406ctRCf30rvV7ZvFPbXuFv/rOQx/77Yd5xoBc4DnSWO6bwGkNfC5aUOTx2hfR+tlm8MDOQuWKLnqVc+iz6s74aJzRCTh1OaZPsd1Tn7gQ63U+2XNg3nopfptBDLALddFqcF4H+Tt4qqtAPygXolm1037PVLcEcPr7/U+Da7JaAPsENQF9daRnoAIKXqeKzZRnDITgwAtY0/z7ZRKG/QYHe1iZ/oH92iCe//VFl8ehSaOEqtGE5154Xcu+WVDpcDDzeoLUf6FZscnuAXiPejnEW7HYY1/v7ndaPE4bn6GV68RZpQaVPFG33fZeMPvv++Yne9mz6/hknnqeOMHc70A9MeDt/FTBTZKdsgH61KdAnv1eYTIF+2Fs5dOtHkKr9ZrFT0/JV5E8HeHKZJxhuBnqmleI2gDJsgrYKovZcNLKc7GSzvLtUfAVV43JX6Foxfw6PoTmQQWEnV3PkgI3paWrK2dQaodXNUnHc8nLOI0CHAryZxZbz5w/Qi5Wvj9n++W9O6NuL/syBDq8xqJ735YCaD3ieHpQG7CDM3Wa5R/7YfHDc/22RP9Aj3ytIjs8770agq60MdNH4pG3u1AQ4+vHjQ5YLsRDoloH+QDeA/tIu3RWjQE2BHmejUvsC/XPPNukoQFSdAAsggNv1+WH5Ax0K4qAw8AELQAdFl0YhYGucLRxywooDrQB9mSNAz3ce6NB5MKPICtDpfYPpb7bie/r1GBtALzrj+29IeB5T6PM5Nl9IJSDQ3VYUd3jCO/lJZkCXjlDt5y6gd3XSWiegT3r7x1UU6Ae7D3R1F+1jvlW85ooVQzeNaUWCzX6RR5vdHOiZVoDOZtpTqMLYUWcugr6iyg2AEWPFdp9fqiH/O66/4uCVA5famJ0ufY85YOF2Li7XMDta7kCHQSxwQMl9Fix3gNk8ev+rm63/3p8uXzky19yyX1/rGaBX0Nu4oFToPzf/HZBXh+fL1usDLmqsWu70NbajxegX7yVIHWTQ52S8h6A+MUAV+tg3f1wl5NC7BHqY94D+1ner4rc2H7Af6F31fNs7kc2/oQ7KPLJQxaxPhLnjQIdiKsj1sm4AB5kGldtLyjmLfegSLKGnenUVx+ZlQ1/yYgoweM4swRwWXGDAedWunAfuzhw6nO1uCejRYqU3TEy7ZKGYAO4fFG3CjARL7WvwfMFJgJ4AOkxJA0sZUiCWKtyh3a7uvGUosyr/Cs5qURxUx2v9yDHbcVF4rB7aKkAIge5aoE/6/ty+h175epnYtiYboA9sB7pwo64d/4evlsVtObdPALraSnuYpf93pbQDR4lbgnlUoYqNH+WNCG9LcdKG5S4tAM80+nj++6hjB2vA0Z8v7da2F7NZG/sq5cWjxalxMYWWYQ5QmF0itEe5MtwJ9IYLRpZ/nphvWWXDY/D5zzy5TKEOj61BPBMd8tJwmyblW+5dB8u+0Q5l6wqgQ0Dh24MWqtyjWGGccFEGF3DwPoP7ANfOx+jfhjoBa21r8Jisq9X63XtqF4X6kgr32u8TAxboZ3c/8OI/TdvWhssJ6MPpjRoJN27cy39fPHXL2d1TKdA7t4dpENBO2OwJxWp2BOplPSpzawFnvUN7FBQLTt5mG+owrhNy1xoHDuneSTc3qJAGoNhzZOpkK0sC62t7tN0+I9wRoMd0E+hQ+AfnaoOzYG3yG2z6qyo5do442NMpYrvfJCuDZSaJ+XN7LlJdBXRwGhK2CxcY5qNdI8V+enj95Ci15BV6EfcY/RhdINj01gbLwPP91TH/HAIhFcq5w36fGNBAP7P7/hf+Lnugjxzz/F8XTN1ypqkD6GoEt5MLFAx8fGe/zudGS3ojoHVqRrGoGC0BXYQt5EFBqUNe2JGLpB9PQlGV8POTnYQ5QCGzTuuWFqeuFHp0N4DO7v8JgwDDAutjX6WjUqXNP9rW6WvQx7/LvgsbVwEdCuOgn3xinvU57dKJagB3+GjJZjdV52vohcspjf++P5UXjKxQ7uE810I9oIH+3ZmmBzb9eYGMgR4sAP3pD+bG/XhaObVYi1Dups0O6hxgjtXs9sf/s3cW8FFc2x9PgtT9X32UAsUd4u6C1Nv3aq/U9b1XF6rUqEORQghSKFq0OEk2CZaEJLi7FQmQkADJ7maTzf3fc2cmTCYzs7OS1XM/n/NZJDI7M3u/c+x3Vp6qY/lsyJmnysBcPJscCplghKY1uc8Fx00M6kk5TcPvSiAXVNFgE3uu0ECKzjVP3kQN6EkOADoIs3y5w6gq56pmqTKa78k5VfSaWU6BOKooDgoRQVlRDPPkXOUBLGomVLfPPeb9vaNQvAk1BI6CeryPAz1+eenm4M8yHuOA3sKNgf7ZhH8OXFW6ubGHjmZ1mB2q2Q+iApwtawUFBOSokyzMLk/koT7vWK1VD01L/jax0PJAfpxqqgavHML8H201asoXOxroKQ4COqwSCsXnNxhshnqKzOhTKFIDGKsVK9oL9IJznHRtVGaV6gQ1a2AOP+cr+oDjK5MN4d59scj+8Hu8zwO9BoBeHPjh6IfdHujhH456eODK0yUD1yHQbQ2zQ2vaOAyz27yg73nRiVo2hCNep57rTuS9LAi/X7Qi/L7nopldI6iMVqpkFzx4KJiaTx8aypv5esoBPcXBQIe19kwdeWEDd26tHaOarDTPnF6DP6mnW2N2PNA30IcQKHYTzz63FeRs4Ew2d26hZqPc6Fuf0U3n65gUcrQdnrrPA301Bfqy0sJ+b/90PzDTP8AdgR7AAT30nR/vH7iytBCBbptnPoC+jtpXgwpwdi7gwl8U6g+s0VvMeQue+jQb5shPO1TTMPdcrpodQrwGJ3UmSIGe0kxAh7W9oo5NShO03BNF4WuxCRCU+z+xwUY3iL4uoFCWk8K1Fegw8hXSHDEWYC6MSxWPTE0UDV+J571SgDlU+6cfMJGqOt984IZzOqRQTyJtgHo8GgN6wrLT6/q/8dVAdwX6HfxB3R30+rCBA1acXjcIgW7TPHPoya3B1jSHrSy+CCopxzLUwVOHljZrwu9zjpoavFQp0AECsPE5a4mBntLMQIdVaqhn0rXPUW/9wbVcrUKjeeh8hAIequDcwoaepAZ1HTc5cMnftU0egmwBeuE5Tj8gTNSmJgfzOP6BDwasMAGh3MsgF+a6Q3oFBHTe2mgkuWcwD5Z/rpY8U6i3OvyOQOc99KWn1vR6/qM0DugBbgP0my4DnR3U3X2efT91wPJTqxHo1oXZIWc+HhTgMMzu0AVOFLQqgUIYVDZrCb9PO6w9/D7bAtCfKXA+0BOcBHRhHakys7nuMDnu821G5rm/t8lAPt1qZONKwetO319DHuFTILJQF8F5AB9+FxcrWgt0KICD6nNLnnkc3x//Ez1O0AWYccREftoN76OG1Tx8Rt/P97uN9J6ooRCrw4dtST3Fixu059QR5iKgLzm5uteQ91LdCejXywG9x2MvJwxYfjIbgW5da9oYuuFVoAJcs0F9KZ9Tj8vWEH7nW9q0hN/dDegPugDo4vN80cRpAkBu+QK9n8U95lBH8DA/V1xurrlgcN4eoNdg9pHLeadTGoC+5AQHdBh1ykCTffnrZWHO95aP3GtkxyosmIMOU9dgiiG8Gurwc6kWfoe0UqQFRTkEuRTop7K6PfxSPGVmW56dTlGK0zycxd/fHw6qbceYQeHUQ186aL0Jga1lnvlqboQmasY0/4LhGhBW1RJ+T+Or3y21tHkc0CtdGy6eeaSWHWMD1HPkjcFWB5A2sfnkZwzqQL9/NSfuIsj0wvQ0Vc+c7y+HwrYyjIrZtaC3H7pKoFAuHoFu0RJWm0jc0tOL7g6KDQZm+nHsVJu21trp89D5g7rnprva9E5dcWoOeuiWR6CCDdthxGp2Jy04yxB+f3K99kK5mUfUxWcQ6NatWur9Qlj7QX6MaVKOMtTj+f9feNzExrMm5ch/vSAUBNr4oKMfKdFql8IcPHc4JyBqA3UAuOxfUHsyeLWexOgQ5paBXkNil52eef1NN/YEZmoAeivnA93PjwGdWsfU5aenDFprQHDL2ADekiksnqSbfU5pLe4GTlwQAoYxmf/ip26lamxpq1aAOgLdhtA8vQbzjl+eTa4GdfCiIaoycm8NawNU+9q0PD33XnXqMIfzAGF29Mwdt6DmBESH4nMa59MR4DKWayAxS05PAVbyzHQJ0FtZArp/i5btIISQsuzUeAawNSj5Koa4YGl8ixroRZ8x4qbiirUUoL5O3VNP5aEO13D6YZOs5jgC3fY191gtm4AXrwJ1oaXMEswbKb+pwBx+1o+7Kczxc9csoXcofIxBoKvAXM9eo/86MR5gzjPTPYEe0PoK9rSRtOjIrwNzL/o00AeoWBqfP4f53Lhct4TwuzSnLtdPDm1Lc47WkqpaBLqjFsi9QkoDoG7JU7cEcyW4i2EOr8N3GskpPcK8OdZJel7/w89RR3grAz0u+xKJmH94BGNmqyuc5qH7WwH022Gua0Cr1uzg4ubs+i5NV1kzaI0BIa4AdMifQzEcLteH38XV76kqI08h/A6zvatE4XcEun2rpg7yryby8BrL4Xd7YA4P0L/sNTI9elzNt75kEw/pAxrCWz5/nksfeDIrq0On7/gKusJ4Zv6DZ6gY6NdQu4raFc0J9Cv4X3IN/0tvbAT0luzg7o6aXPRJWvb5876QRx9ggwlAhx5dXK5dQqHcP3mop1iAOrRHTaJQF4aJINAdsxYdh/A7dw0cDXO4bjCuthxz5s2+fqZ7GgJdBeh5FOgry8uC0vOHsh70lq20AL11cwC9tQLQbxGAzh9c24jRWW+nrTp3apCXTFwbYCfAlULun283Ej3WxNm8QITnyCUzG+8Iet3F1GBuOYiQWCvhCn3qj/PV75agDvcBgBxa2uYdR6A7as0+WsuG2MRmOwboQpj9u101Xj3e1J3Wj7trOKEZhLcC0I0kdsW5U0EjM99mPeguBLrUQ7+uCdBbtGRAD/t+3utpK0uPeDLQBzgQ4HIGVe7PFulJURnKSFq7oNcYlMS+32Ukb240kOcLDeTpfD0TuHiZntMPtxjI6H01JPN0LTmrsfgJtEOW8Z56vE6bp/77YRNT91MazoJAt26xB6RjJuap2wJ1McxBIQ5SJDAXAcPsTrp+ZkKGbjOyojgEugrQl5Ue6v/NnFcZ0DlmCkC/hWfqdW4C9BZt4SCDPs14NnXF6d2e1Is+wMnGxnrS1693NlapwqW+YUAR1WvFBtZ3nMCGZVQ1DNQAg5BtLD/vGnLjn2w1MjUrrVAH7Xdop4q1EH4HrxzkekHPWunrEOjWL2hpW3ai1mqoy/WZj6Ewr8TPltPWOvo5ezyfq3JHeKv0oC89tavv0PHPcEBnzLQE9FbOBvpt1O7yD2AHd0/vV4Y9nLr8ZLG7An2Am1gyP5AFemxBDxuKtHD7kV+Q/4SaA6g2j+OBrdZDnsILjsDXgucOM9K1ogw8dS3hdwEkqQh0hy9Q6dMafpfCHB62QJsdW9Oaf8EZrjHXs4fm10oMXP4cga4K9LglJ4t7vvLlw6xtjWPmXTxD3Qzo/gFwcO06DhySmLr0RM6gdUYEuAUD+Uvw1KHd4xe6CU07ZGLhZBDegD5deF3492WD4qHF9BVyvtBLzYz+GYC1SmK60jqSK7F1Z5safBgLqJWUm91yEwQd7292GhlgkyzMN5frJQeoP7aumuW7tQ7XEMRnlPLjWgyBbk80pp7e/yZyP6iPZWuHOZz3kRBm93aY07cHNSNQdzDrCG9HnWug+DfxoIlFGf9FPfNomJaHMLcAdCOJXXwip/3AZxKBlTwzrQW6v6OALlaLu040QpUB3c/fnwH99o69A1MWH1/E9aHrEd4awu8J/KCK+6hX8hCFz8Pr9PRVz14fkdijFDSPSQw+UFJ7oqCpPVXIWwFv9M//5v/+Cn3CLjjnXlV61fRwIHSaJBrHaa3BJg9h+H+tr6YPOdreH0RLMulDEYT243S2QR2Bbt+Chy/oQHhojQLUcxtrs0POHO4VX5BShpnx8F7va9hjXWHcvQVz0dlsdAS2BdOzPvSYRX8vurVzn0BgJWXm3SKg38wztdmBLif/2hTofn5wcO1B0i5x0ZFpA3IvNZu4zAAvNKH6PUViyVpMMo4yyQpLzOVuuPvpg4S7SdHmn61joVc1mAvh7xSZMLwA1xQe6h9sMZBjVdo3fN3pOpaLT7QB6t4KdJDBhYhO+n4TGbbdSD7cytkX9M/pB2rY/1U56DaCKwURKbgHEhQkXRP4a/PDbqPP5MzhXUKLGFxr8IpjIUKhc40hyK0QldFdIpELjk7jZV/b88wURqeKgS4ezKIGdD9bgd5KYSb6zfzB3Mka5Vu2hoNsGz9nz+g0XWW9PeIyA9Cc9iABDw6P5FeTvDO1brVpDaWgSFCQZ03lB3gk6KrIQ2ur2XAIYYqWUiHb4DxuKpc1C8LvAGZf99Dh58OglI/oQ9E/13O/JzyrqsHCMqvYuYdOgaFbjOSvv7V3GViKlsw6YqLXukp2clo8P/J24d++1QM6Ym8NScpTH1va3Iagtk7DPS6zsj581p7RXMtaayWgy01akwO6nxOA3orpuUdlFH6Vlll+wVLrGgLVtSBPEwN9vXsB/eClelYEl5IjX/QGm/n/NhnIgr9NJK+0lmlJpx8wkSfY4JUqxZazV4oMZBTdDMfuq2FhSzUbt7+GjKSeEFSz+zLQt1fUkY/pwxV4yhD+Bs8sMafpTPNEHZfLBoP8N3QZwPfau45Vmdn5TESgNwF6HALdg3rQyy4GpRd8zfegt5MAXWkWeisRh+0GutrEtRvEM9FFA1ruCf5h8TspK86cHLjOiPB0Y5A3Avo69wL6RApnOe9cACZ4iseqzY06A6C1La+0jgwpkJdzFQAH+VatBj3n8GoL0IcUej7Q15+tI0/lc/358cIc89ymMJcWqwnREugy2FNptuu9ndbzQNcpA33BcR8Eem7j6WYIc/cuiItZeuZkn+F/vWvFYBa1HnSHA11m4loLOMh2fYemP5+84vTegetqEKJuDHJ3BjqIxMjlzuHfoK1Mqb8ciqmmHjI15NbloG6taIktRXEAs6cpzPR19R4L9J3Uu36l2EAisyQeucZzCACOot/7wgYD2X/Rdqif1AD0hQh0hLmbt6zFLD29t8cH6S+wCneOlS4HulT+tTHQAwJA+aZd9+c/eTh56YmSgWvRQ3dXiLs70AfkyofbARRvlBiIGic3ll8uZkvNdY3BcQ7k1cqcUazlaKBX1NSzdsE4nW0wF3vrAHWohzhnY04dgY5A9woPffHJki7PfvwwAzrHSjXZ12YHusUBLf7+7CDb35v6VELyX8dyB6zWE84Qru4IcncGOhS8pSoA/Z1NBtXv3Ue9QWjHS3Ah0AWoQ8gepGhr6jwL6OvP1nIqfAowFyrMIbQuhNeVpqUJFeqLT9TaJJ6EQHcfoCOcbWxZoxa94Fhuu+SnEliFu38ToFsr++pwoEvlX4Ve9PbX33xL78QFhxal5V4iA9Yg0N0V5GKgP7y2mkmfustKUyiIS+I9dHN9vaqH/ug6ThjGlUBP5Y8XoD5+v8ljgA76529vglB7VZOWSAHQ8DOhR/zlYgM1PZPMFSR45aAOxXQfbTHaJF6EQHcPoCOY7ZuDHjnv0KJrbrmlNwd0f0FUxlbZV6uBbrVaHKveC2jRAQ44btb2jNTs82TgWgPC1g0hLgf0TDcC+qvFjXPoYkCCihv0qMstGPIx5ZCpIVfuaqDDccBmCNAZvddELpjcH+jQSx5FYZ4o45lD5AQEd6D6f98FM7lUW08umurJXvpn6B4YzIvxyHnpoH+/y4aqdwQ6At3jx6auOk/Cpm/PADbyjLRX9rVZgC4Wl7mTn/EK/XX3hI/N+TZl5dkLmEd3X5C7M9AnH6yRzYELkHqLepAHZAqtVp7ipqYp6ayzYi0HW5JI2EbuWBtBfZ+JXDK5L9Br6SmdfthEQjOrZMPsAPofdxnJxdqmnjYIyoymoBmQ29RTh+8Fjx8U+BDongd0BLN9LWsxy89eCByd8y2rcOcYKbSsWaMSZzXQ7e5F92/REg62fb9h099KXlF6HCvd3RPizPI4g00fgL7KjYB+orqeK8ZSqVSHwrcfqacIPeiwob+/xdiQZ09REJeB9/lykYG8Sg160l92gD23wUB/Lyd8kiIDc8Hg98N1HH/A5PBJPI4COoAa5lpHCOF2EZShv/zfBQay6bxyxfqOCjN5rpBrG5R66QD0DPqgZm3hPwLdtUBHKNtf4R69pPR4j8+mv8U8dI6RllTirrBXJU4O6lqA3rgXPSAAyvHbd3112OPJy05uRQ/dfUHuzkA3003/ky2GBmlPOagLXvigPK6iXG0CmjDyFKREwQsFBbIaBxj8HAO13DN1TNRGOF4lgw0SRJXGUk+9qtb9gA7V7V/sMDJPXArkCOq1g1hMhYpeeqm+nry3ySBbJBedVU1+og8LJjMCHYHuWx569JKTWzu9POxxLuQe0E6jSlwrW6esqQE9QAXoTVrX/Pz94WA73BU7ODZpMVS6V2NhnBtC3N2BDiv/XC07LrUxpeK+8hSVr4nXVbHWqePVzdNCBl5nTmkdG7CjBepcTr1GFY4uA/p2CvRMeaDDOSxXOebTAPTNxgb4SoEOGuQIdM8BOgLZ/oI4eI1eeCy3TfTgWGAjz0h7etAdAnRLvei382X4UI5/L/2mbgkLDi1My7mAQHdTkLs70MED/pVuXPE6+wrc4PuhClvnhOEzW86bOWEZHqJqUIdzD3K1tebmBXqyFUCHIrefIeQuA3QIuUMUorhc+YC3VdQxhTzZkHtmNZl8CEPungJ0BLKDKtyzLkCF+0LKxW7ARp6Rcj3obgF0cevaP3hZOzjo9jEztk5KzSo3Y6W7kyGuEeTuDnRY52sIGbrF0ODtWVthDqF20CCff9zktGOGOfP/5MPvlqAOsrIZFOrGuuYDOoOf1qI4CtuZR2pJyKoqWZGY6Kwq8u0O+bA7TGL7iXrg7LwrFMVln8aiOE8AOsLYgRXuK8vNodO2TuLz53JAv1EiKnNFcwHdtta1Fi1Z61rwqMyvkledK8c8upMgbiXIPQHoHNTrmad+Xx7XW56iAeSC9OizBXqy6mQdy8k7awEUs0tryWPrOOCkaIC6veF3NaAnWgF0WEXn6khMVlMoC+1nA+l1+HZXDfPG9fTNVlHbUmEm3+40slqGBIXvg6l4tujJI9AR6B5e4V7ed8TKr3igO6JlrVmB3rR1LaAFq3Tv9WH6a8nLSw8i0N0P4p4EdFjgwUJb3RP5+oZWsYbcuYwnCfYh9ez3XDC77JjBUwdYawm/w9dN2G+iXq5jgZ5sA9Bh7On79NxBiFxJoz2Zj3yArj4YFBwm5cg/BDBhGV7+tdyGh5ZTeg3T1hDoCHN3BfqS0oPd3k9/le9Bby8ButaWNZthbn/rWkAAHHSHzkM+eCRpyfHNXA5djwB3I4h7GtCFZaBMmnfMRP6z0cBAAopwD63llMoeo3+HUafDthuZWpw7rA1ldezcJmoIv0N0AQbL2JJTlwJdrO5mLdBhFdLjjldRfhOAmijxnJWkX+GYloH0qw1BCBC6QaA7B+gIYUdLvrKCuJJ2j7/1AOTP/f0DtLSstVYBup8zgN6odY2v4ru3TVRadOL8A3lpuRd9pjDOUyDuqUAXFoDhRLWZbD5fR/Lphr+B2i7qjZ+vqXer44QCMMgbP56v5xTUNEB93D5QlKu3GejJDgA6DJT5abeRdQcoed1ah7NAdfun22zzzuHa/psfh5uUg+NTmxPoCODmKYiL+HO/7pb+keGsIK5xhbstLWsOAbo1Y1QbKt2pdYqZsfXP1CzvlYBNc4blNa8JQF95yrc2RWctM4M619IWr7FQDrTfrZGJLeOBHu8goMPaXWlmuvmgw24L1OF7oDL+xSIDOVJlfdhhU3kdk/mFnyHnnbO564KH/jcCHYHujgVx50notG1zKAs78kx0ythUe8eo3ihtXeOr+TqEjFz5s7dJwHoDxKVAf4ACfckJBHpzrpJyM9NB15JTByBOP1yreUobAP0BBwMdVnFZHXkq//LglSSNXrnw9dDCdtRGmMfzDwRKME/iW+kg7QIaAAh0hLnb5c+Xnano9+PS74GFDqpwdzjQLU9duzykpUOPoen/SVp28vDANQYEuJuBXAr0pQj05k0TUNOd5hTl4jWG3ycfMLHhJ64COqz9F83ks21G8uAavaxgjNQrh/8H9T4Is++7aB3MIZWy7sxlzzxJBeaCPgG00ZUZ6xHoCHP3AnqugUQtPnmw8ztjX2P5cycOZXHk1DVWGOfn7w/J/3vvHvzigIRFR4oH5FV5TB49zQcgjkB3XU591SmuTz3WAtTjeaiP319DKi3kn1WBnmsf0GFdNBE2XpeF4LOUYQ7HDUpxWfTBxdo6AFYAd7aOPJmvt+iZx/GDe0B5rrKm3ufuI0cBHcHbjPlzHYxMPVzc5v6XBvD5c6cOZdECdM2V7mzmK5c36BU3Z8+KNF0lcUcvPc0HAY4hd9ev1dQLfWCNNvGZFL76XV9rh4eeYx/QhQVa+BEK7WwA4ZeKDOTAJdtaBaHAEfrYLcFc6O3/YVcNuWSq98n7xxFAR/A2J9ANJDazkoTP3L2CQrMnz0JbK9ztBrpa2F1bpbufXzv/Fi3hTXSImLB+YkpmmdHVefQ0V1ueexoC3TUL8r6Pa1CUYwCjm8Qfh2sVC+UUgS4KgzsC6Iso0MMUgB7DgK4n+y9a93ugaBDm20NIXwvMwTP/fpeRlBvrffbeQaC7f/48dkWZMWjcugw+f95RUhB3K8/MGxQK4hzWg26NBKxqpbt/QAsoAri377CZHyevKD3tbKAjwBHo7h5+h84CEMsBGFry1AFmo/eaZEEmC/QcxwG93gqg77MS6GvOcIV3cRpgPiBPT0ZSmFWa6n363rEX6AhdJxTELS090eOTqR/w+XM1DXch3O5wDXetQG+lQdO9rb9/ABQBdOz84hdPJC4+vqs5J6+luYvleZ4h0F27VlGoP7LOcp96PA9O6FO/aLIA9BznAz2atahZ56GD8A7MtdeaMweY6/E2tQvoCFwnTVhbdHxHh2c/foyF2zkWthUB3SmSr9ZKwF6ppunOFwF0uvberiHx8/avgclrA+0Aepq7Wp5nG8DifgS6S1duaR351zrl8LvgdcfzLWHS8DsD+hp9Q+W3s4GeZCXQ4eeBGFBaLufZW4J5Ch9m93XP3F6gI3CdKCgzZ/+a6zt2CwEG8ix0uoa7rYpx1ykVxvm3aNEJQg5Rv5fMTckqrx9gQWAmzd0tz/sMge76ZSZc9Tu0tEnD79IiNwHq4KkL4XdXAj3JBqCvLuWq2eN0WsLs1eSXPTU+nTNHoHuWoEzMyvL6oMklc1m4nWOgloI4h2u4O74wLqAFFAN0DP5+4XdJK06Xp1Ggp3kCuL0Y4FJLRqC7B9QprzJP1TLQAdSTZGAuhjq8Qk5dT/kJLWIPugDoSTYAfXVprabWNKEAbtReE4bZHQB0hK3zKtyjl54u7/3dwu+AfTwDtRbECUB3WHW7PYpxNzVRjPMPYBKw3d74YUjCwsP70/IukTS68SC83cNSEehut6Cl7XFefCYpRwXqOs4g/H6sqp4NqElwItCTbAB6URnXmgb67pbC7MkszF5DqvC2tBvoCFon5s+h/3z+4f0dX/9hCBduD3BEQVyzA12TYpyfvz8UA3S66d6eoTEzt69P0VWSAWsMCHA3AHkqAt1tV87pWvJvPiSt6KnDBpLNvf5KvViQlU10EtCTbAA6hNlBAc5SmF0ogPtpd43PKcA1B9ARtM5Vh4vLrCRhf+xYf13HnqF8/lysEKdWEOdUoKsVxl2tUBjH59Fbsjx62Pg105Mzy2oGuCLsnoeWqmAC0Bd5yYCLGjMh1XX1xGT23PcAEqgAdWjnipILv0vGkwIAkyzIsToK6KE2AD3n9OWpaVrC7GP2mcglE4LbXqAjZF2QP19xriZw7NoZXP68pTh/Li6I05I/dxrQtSrG8Xn0AMghdOrz2e8fJi49cQrB7R4gFwN9MAX6/OOeuYMCuA9fMrNK8RlHTBQGNWzD+21/DfnzaC1Zd7aOjVr1RF9Px0O9kaeuMBAl2U2BvuZMLWtN01LNDscLBXDVGCyyG+gIWNdY1F8nTnX7ZOqHwDyefUL+/E4NI1ObFehaC+OuUhCYacNyB/7+kEPo3O6hVwfHzT+wMzX3ov15dAS1XRCXAv0+DwQ6gHx7hZlMOmgir5cY2CYWuKqKAqeKhFELoX8Ooa9QJf3uZgOZddRE9l0weyTUIfwer3HamauBvu9CnQjmdeSxtXr2fxZb03K4MHu5C7TZz9PfeZA+FMKUt4JzYLVk63kzOUr/zR214hHobtquln2RhP95YMdd9780CJjHs+8eK0emNkuFuzWKcWqFcZA7gBxCZ/oDekVN3aRL0VUQzWF3hHOzQNzTgV5BN9mZ1Bt/YQNXCBadXcXAoKSyFkX/H+D2v40GsuxELasM95RlrudC1tCnDsVkSW4O9EO8ljtETJ4p4B5EtGizj91nYmB15oJjnUfv+293Gsl/6UPhMwUGVpAI7YPPFurJm/R+gYeMJfR9n9S7D9h/4YEer0OYu9X888yK+pDJGzP9OP32zjz72looiLOUP3ca0C1NXruLfzPt/QNYL17H4BHLf0teefZimrgwDmFsM8DtAbk05D7PQ4AO+fFRdEODaukYFZBLDaACE86gX/uPwyaPC+uCt/sk9KlbCXVnAv2VYgObfw75f6E1TZijrgRzuC6QJnFmNTs8JMGD3ev0eNP4+ygyq4rVK0TzFkXPcwT9t1i+F/6dTUb2YFXv5kBHuLquIC5m+dkLfX9aNoYLt7dQyp87XVDGFsU4NYGZdn7+LJfQucfbo15JWHTsaFpuFf0g6RHMLoK4pwIdCt5+P2Rq2My0gFyquAab9wNrqtnksDoPS6xD+P1pIfyucy+gxzIP3UAmHzSxavZIDa1pAHvwgJ0Z1j5nrCcZB0xkEHUmwnlgAwgTFSyBfxCENA48DP55rJYY6twT6AhWV7ar0QfCBUePdn5r1CtcuF01f25NQZxTgK5UGCefR/fj8ug3dg+OiJm5c3Oq7gL1zg0I6WYMpXsj0JefNLFzYgvMxQbwgarrXZXOyalfNNWTrefr2EzxBcdrKRRMZCF9BUDvoMdwqbbeCqhzferwHpLcCOgJfPQDTIChpT7z3/aZnNqadpb+rhF7jHwaRhniSgae+2D6IAB1G66sxhgpyaEjVF0vJgNyr2HTd2y+vmtwBBdutyp/3spZMLdFYKbJoBY2Qs7fH3IKnSMmrF+cvLKsFoHuOoh7ItD/rjKTlzZw1dJK3rcQVoeNN44HmdLXQt796x3GZvUOjXTXX0DP66dbjeS5Qj0Tf7mfAg96xuH10XV6VgfwxXYjfVipZV+vBa755+rIPzXm1J0F9CTBo9XQZw4QmkC95EtODLPDe4DoTqpIP94Wg++FEPysI677vIzeh0B3N6DHrCgzBY5bt4AvhnNU/tzP2UDXMqiF60f3D4CcQud+X80elrDo2FkMu7sO4p4GdMh5LqTHl5gjP7xEyMeC9wQjPN/ZZKAA5R4YlQaeJPJwgdx0c6xtFXXks21GMpAeUyQf2oXfFy8Kj8LfY3SQr62ikNez4iytUYPcUq6lLT7bPdrWtFhDAdz+GqeHrTeWm1leX80zT+CvSZyFMDxAHR6oDlx0jZ8+BoHuRgbT1apI1MJjZ3oMm/UZH27Xkj93Wv+5tQIzmvrR6VML5BS6tEl9Oi1m5o69qbqLJG21HiHuYvMEoINW+TDqxcbq5GEOm+xrxQaygnq50H4EFcl7L5hZaHtIoZ7lzeU8dciLjt4Lfc+O89Jr6R4Px/E89bwjsqobzyhXUX2DEDqA4mX6QJJHYV2rgRU6vvhMraXNXYAO1ygtV08+o9dxZ4WZhdpLDfXktL557Qz9Haf0ZvLlDiOL3AiFeFKQQ84fYD+QfTb1JJzeG3KevABQ+DOkDMwuBjoC1R2mq10kodN37Lk99d9pwDiedW7Vf25LHl2pH/0ffC7hXvZm/fx6hGfkr0peVVbna0BPdUPzBKAfraonzxZyveZN5oTrwCs3kB0V8lvrMgpXCG3L5d1hw/5PicGhLUk5FMbQYhajq1IdsCInEgPwZfl9Cmnoh9YSuVhPv44NZsl2f6APoO/5VfrgNXSLkXyw2Ujec4K9T3/Xm5sMLHoTqwBzaGuEB7DZR01MSz+XGoTnB6/meugTRF+bICqUgyjQWUO9y4Aei0B3C6DHriirCxqfvwrYxjNOrN+uJX/e0hn95/b0ozfVdYecApdb6NLv27nfJPx1vCwtz/vD7qlubp4A9J2VZjKIbq7SnDj8HaqVpxwyqcJoxF4jq2iWAh08HKga31NZ56AHDzP5JxSs6aqthnmD6huE4am3+Cp9SBF6ui2trFO1ZFCec7Tc7Qm5i0PvcRYs1sEm55mDQXsatNttlTwQQgcECM08wevPN2oP4x+8YJ47DJxxBdATEejuFG4v6/XV3G8o27pK8uf26Le7DOiWdN0b5qPTb4fcQtc2KU+mxczatT81x/vC7qkeZgzoa6rJ3GPuC3SoEE+QyZ/Dxgq5TEt58MUnarnRojLePbRYbS63f1OGsD3kzCFfrgbzhsIxnXreOzKzig1dqdZwaCDI8tAa50xbsxfoagVnjYrrHGhKvy+ehz2kOJTWPPq5SMu9XPsgAJ3p0tPXmS4ojkOgu5c6XOj0HftvTXo6lQGdY5x4/vlt7tKuZk0/uloevWE+OojLcG9aCLuX13oD0FM92AAy4OWCNKo7Az2RPgnLAn29numFqwKdgihOBeibHAD0dfQYknlQyIGchXazOCGchyl8k3hoJyiAHTxAgHShhtA75KOdMQ/9Lwb0Krs9dFtg3xwG4XRIAai1zsGcAFCQixfBPIH3+OH15901CHRfDrevLK8NGp+fKQq3y80/d6v8uaU8uub56Cy3wIUkuvYbPve7hL+OnffEsHuqF5kA9JlH3BfouyiMIAcqDbnDpgz/Pv2wyeIGGCETcodNGYrK9tip8Q668t/tNLKcvBzMYeNN5RXRhKI9+J0j9tQw4MZlyw9cgWK+8ftrmDqeJaA/0IxAF9Y0ep5BI98bYA4GRYvDd6oXRZ4z1DNFuXgRzAWgg32zA4Huy+H2yAXHynt+9efXonC728w/d8Q4VUsysGw+Orz5ux965YHomTuPpOZccuuwe6qXmwD0GUfcuSjOTIYU6BWL4l4pMrCqdrmVeaqWPLpWuSjujRIDOWFnURxUU7/Cb/pSmMPvvZ+e3zlHTUTKDX0tYfl/IdoghXE0fQh5b7Ploj01oCc5AOhQfJd5issnx2R7B8wFD/2VIj0pV/PQ6b33DN9JIAU6eui+Hm6/BOH2g/8X+1gKZVo3nm1a5V49AuhqMrDSsHuf8Anrs1KYyIweAY5AV2lbIyw/HZst37YGBmCGdrHT1KMyUFAer+ba1mDIRrxCL3pEZhVT3aqys20NivYgdJ8gAbpwbNBfrrQu0t89nP4/HIsUxlAcB8Izuy/U2eWhJ9oJdF1pXYM2e6KXwFzIoUMUJEclhz73WC2XQ89uDHQhhz4Dc+i+XN1eGzR+vTCMpask3K7WrnaFq8PtDm5f84dcQ7e+384dHr/gUIUrRWZSfdw8AejgIc49XtsASiWoP7y2mrUfQV4UQA6a7Uk8ZFPlgE494PVn7Q9Fl5RxKYGG/DkPU9j4Ibe98pR6jn/pidoG+Erz6CAeU1JmPdDFkqz2AB0EbIT8vBrME3RcxAPOKfRwa7EwJxn0mMfplL30ZwuaVrnDWk0fZGCWe5wE5kKVO6RRSrDK3TfD7Tp6X807XN7zyzlfct65v8e0q9navnadQvtaez400a3NAy/eF/XH1qPOqnZPRfNIoMM6Xl1PnqYbb5xOWc41SaZqOllF0x2K1H7eU0Mq7HzrhXRTH5jHaZiLgQwQfGStnqyz8NCQU8o9EEjD7gASCHNvsBLoSQ4C+qpTdeShtfoGgRU1OVd4hb5v0DmHaXbTDrmHQW3Ij7tq2PlREoqB439kXTUZSe8FSC3AJLbPtxu53vXs6ibhdsFDf3GDgZwxmBHoPlrdHjJt2+GbIx9M4sPtHtOu5ojpa7cphd3Dxq9ZkbS8tAbBjUC3VGm9jG8/S8yxbziLuKgOlMFAGxvU6Gxdm8vN1Itt6mHDxj+Y/vw5FloCYYJXjIyEK8AEZopvPq8d6EkOADqcCRgCA2F2SzAX0iATDtSwXHQ938PtLgbHA6p731OoR2XLt7EJQjFM/IbfQ+J1yjAXzvNv+2tIvQsm9iHQXW/RS07XBP62djllWC9JuP1uG6aruQzm1ravWVKN6977s6kfxM3ZU8bC7lZ66Qhk3wE6LHCGJlOvy5o56FqgDjlSyKVX2xg93X/RTJ4qaNoHnsR72W9uNJCLCqcXqt6hqA8GrTQtiuMK/ixphgtAj3MQ0GH4y6N8qFnVM+dhDqpqVbXuPYt2C30ogmsUqeCli/X14xRALhg85EChpVbhHwS6941KDZu5u6z7J1M/AIY5UB3Ozx2AbptqHBei6HZNux4RkVM27k3JPC8LdIQuAr1xgVw9+ZXCV9iIkx0AddYiBhXLe2oUwWtJ2OXtTQbZ9rNEXvns3c1N+52hx/mDzQbFqWkxWVVMw/6c0XKV+/0OAjrowyfnXM45W5qaNo56qZdq3X+wPBzhVPrgAR54bHZTmCdI+syVLJYvhgOxIlctBLqLi+FWnSchE0v2Xk3ZpSHcfr27VbfbW+0upxonDrv3ChqZOTV+4dFqBCwCXStAwStkBUu6asUpbNIWMiWgJ/NKYAAyCL+ft/JUQNHexIM1DOhJCspvYFB8BT8fRHygBx3C6Yk6ZclWgAe0u5kt8NIRQIfwNFSzg1BPtIXWtDhe2hbA0pzjZx29yuix/ri7hksV6KyDuRCCH0g39CkHXftZQaC71iLnH63u8/PKiTLh9jZ2qsP5uZuXbkvYvUeH5z55MvqPbaehJz2VeukIWgS6pQVO4Y6KOuatw5xxqV53gkgz/KG1nEk9ejk1Nwi/wwQ2a8d7HqDe9kCFfnIh/J4omoom/btcuB0G0uzWIHrjCKBDtT/AXEuYHbzcySzMTjxuVZrqSfqBGvYeIKcerwXm2VwL4X15etbGZjQTBLrPhtsvkbBp207d88Q7j3naMBZbqt1bWRF2b6h2p9YvPGP96qSVZ2oR6Ah0a9fFWm7q2AgKYpiFDspeH2wx0I3bRLZVmBn811BgPV3AgT/ZgtY6fA14ctZAHfxUqO6Gynk1nXYxHNW03MMzq5nUqibP006gQ848UWOYHV7HUyDq64hHr7Vn6si/8w0sGgE58TgFg/+Dh6un1mt7uEKge3e7WsyyM7XB6fmrgVkiMRlrwu2t3KW6XWtxXGsNYXdptXuvvsNmfBE7d/8FDjQIdWcZhE4HgnyqBwNd68o8XUcez7c8DU2A26h90NKmPaQMym8fbjFykQIVqCdbgHk8n8+v1Pi7bQU6hPJzS7nWtFgNYfZkvniwwoPC7JbqMRYeryXv04dA0GuHFsP7qUPxADUoCoQIySdbjSTrVJ1LqtkR6O4m9UoftGfvvdD985lfqITbb/Vz02Eszqp2h4KCHjf2jYuPmrr5aEpWJYbdnWApvAHYBlCgTz3s/UCHteZsLXmm0DLUhfA7bJ7WeKNQ6AYFcLZAXcjVfrrNSI5UafcGbQU6TKl7XEuYXceF2cfvN5FLtd53T9RRWp+sNrMhQBvO1bG+/+2VZibpW++Gzy4IdBf1nmdWkuDJG4/c2Cs6ztvC7Y6qdheH3fsGj82eG7/oqBGB27wQT/FhoLNwK4X6v9WgLgJsUk4V+YV6y9bkTY9V1ZOPqGcnKIwlWQC5WGntyx1GcspKbXlbgF7M1O20wRzunfEHTFbXFeBCoHuThx618Lih34jMmcAqBe12LeH2lu7onTeHtnvP7v8b+Wr0tK3lWBzXvBD3daDDWnWqloXf48RQVwiBQ14ciu8uWHGKQMxk9lETeTLf0KBip/TzQZYWpGqXnDARWxxCa4AOYfa1Z+tYUaAWmKfwYXZ7hHdwIdA9vhgumxXDlbV//stnNGq3e0R1uxYvXUvYXTxSVehJ797q6utDwicWFCUuPVWHQG9ekPs60GFln65lhXJQxZykU89rA9jG7rMO6rD2XYBJcfI96sn8iNSPt4JXbnvBlSWgw+s+vqArr7SODZLRkjMfkKe3W0UPFwLdG4AevfhUXfCEDcV+/gGBvJiMuPdcblSqR4Xb7dV2F0aq3i0Ju/fp/eWsL6Nn7LiExXHNB3EEeuPwO/SDK/WQi8PvAHXw1K2R7y6vqSdvlPCz0mV+biT1/mGDtmepAV3I4++pNLNBIo+ssyJnjmF2BDqG2tlr2PQdl3oMmwWDWHrbOCrVrcPt9mq738oXELSR9KT3vK5rWGzk5OKDSSvP1qOX3jwQR6A3XpnUU38i3zLUhfA75NS1FsqByhu00SkCPbOKjNrbjEDnJXJ/p9dXkDXVEmYfYYcULi4Eulcpwy0/Wx80sfjgtV0DY/lwu7gYrg3PMmtGpbotzLVWu1+lEnYXS8FCKKNf0A9Lfouds9eIHnrzQByB3nStOFXLRpXG6yxDHf5/jMaWNlcDXZxHT9CpzyWH9w5yy/DAUlmDYXYEOhrXqrbH0IsyiSKun8Zwu+Cdu6V2u60z0rWE3WV70v8x4Jn7In7fdDolqwK99GaAOAJdfq0+U0v+XWAZ6gl8SHqUhpY2S0CPcALQtRh8L0yeG4dhdgQ6WoN3HrOyrD54ysbTtyU+PVhlspog9ao2KtUjga6lJ/0GCz3p3QNatQ4MGZ0zL27BIZMvAz3FCYZAb7x0pbVsbKiWnHocryinFppWAroAUncAOnxfGl8fYESYI9DRGoAe8ed+U/9fc+YCk0Teudbec4+pbrc27G6pJ11aHNe70/OfD4matuV8SrbvCM2kuMAQ6E3XspMc1OM1QB2qxX+hUC8zeh7QE0UFcD/vNmKYHYGOJhaSybpAQqdsKmv39EdPqRTDae099yigS6Hewoae9EYDW1pcfV1wWHr+6riFR7y6hS3FxYZAl185Z7jqdy05dfBuYXpahcky0KVQdSXQWZidfrbG7jORS9iahkBHawT0yPlH6oJ+W72ixZVXB0uU4dopFMN5lNSrre1rNhXH+bdo2bfb+7+9Tb30Sym6i17lpae4kSHQldeaM9rD7/D/3+6Ceer1ikBPciOgC575b/tNGGZHoKNJvfPsiyRs2taLnV7/8VU//4C+MoNYlIrh1HrPPcY7b47iuJ7XtOscFTaxoDh+0VFz6moDArwZgT4FgS67lp/S1tImhN+/p1A/LwpdC0CPdhOgi8Pso/aaiKEWrzECHa0x0A0kcsFRc3DGhuIrb70zXEYZTlwMp6X3vIWnwdyStrs07K6mHCcqjruif89PJn8c9ccWg6d56SkeYgLQJx70XqCDDGt1LWcmGwTZoE99SKFBU/g9lT7dQ9sXgNwdgQ5fM5he7/T9njnPvNF1pacYChLBausR6GiO885Dp24xdB06eWjAFVf1l7SqyRXD3eAtxXDWVrsrFcdJleM68iGOnjd0D40Ln1S4LX7hkXp39tJTPNQA6Gl0g59wsMarNr0aCu4dlWay4mQtmUIfVkZTaAI4J9E/Lz5RS7acr6OA106BgrI6CnXLnno8L8wCnnoV/xABSnHuAHTBM4fzYTJ75nWFlrodFWayHK7rIRM7d2CT6XtaSv9tO/0/fV09Ah3NNsszQO68PmhC4bZrugfH8d55N55JSspwXlUMZ6uXrkU5rkeLK64K7PXJ5E+j/thqTNFdcAsvPcWLTPDQM7wE6LCZb6uoI+OoBwrzrUNWVTEL4y2UWjC1+1dDZXcNKaKgvqixICyPz6nHqkCdgTObC7//RD31gxfN5L8lrs2hJ/LHBENgRu8zsYcdT1vghW8ur2Pn6iH6XvuvrCKB1IJ5C1xRRfpRu49e15H0vG+iX1vlpW47Ar0ZVeGyL1DvfKuxG2UOsIf3zu1VhguQcXi9Auji4rhrRGF3tbGqvW7oGZ4QPqlgq6u89BQvNm8C+vEqM8k4UMNADpu8GnihJQ2+BgDwKwWAMLzE0soprSXPF8pDXU6o5ZNtRhauV4JthJOU4uB9jvPQeeYwGx6O/WF6XYPow1hUNhcJSZCx6KxqErSymj2wjdnLPVAh0NGs9M63XtszNJ4XkhG3qrW10KqmpRjOYz10rcVxSmNVL3vpV14T2OvjSZ9ETd9a09xeeoqPmbcA/dAlM/loi5EBLDZbff642ISZ5eBFbzqvrdy78FwdeX6D5YllifzvAM9YST89wgla7mATDlDP3AOr2XdWmsm7m4zsvUVmy0NcziIzufvgnU0GsueCGYGOptU7r+k6dOInLa66JlChVU1uTKolZTiPDLdb66VfrbGFjXnpN/aJTgybWLCZeukkdY0B4Y1Ab1h/V5vJhxTmYRSOCTrtMBcXswFYXynSvvnnU6hD+D3awrATAahJrgI6fz72eSDUjlfXk7c2Gkl4FgevBCsNgB5Oz+9bGw3k8CUzAh1Ng3desOW6PlGJIu9crNt+lw1jUj3WO2/OFrYeLa66Nqjn0IyPqZduUvPSUxDcPgV0yH/DnHIYcpJoA8zF4fIoCo6vd9SQcqO23GtuaR3TfrcE9SQXAl0YzLKn0rPc89r6epYLh3MbZwPMBYMITNDKKvLNDmOjdkIEOloj7zyLeeemrh9lfAysEXnnHSXeuaVWtZa+AHR7vXQoTOh1c2B8MvXSN8UtPEy9dGMjWCO4fRPoBWfrWM48TqfeIx6TxeVX1Tz4eL4KHPLk1vz+l4oo1LOqbIK6s4C+28OADl0IMPktJlvdA4/IvBxeT1DJqw+g9/nSE7WkHoGO1sQ7N1Lv/DAJSi/YdEP/uCTeO9cyVc3aYjg/bwC6rV763VIvveXV1wb1+DD948jp20xJ2ZUkhXrpCGXfBTpUMY+kMATPOkkB5OC5gzTry0UG8lqxgRWqRWYph+YBzO9vNlrV1gV53pfoz0/QuR/QE5sB6FCkBtEJGGSTQ18dafBzM0/VkjfotYrMUgd5Kn1fL28wkBepQZ1CuArY4f8+22YkZwz1CHQ0iXdeSUKnbavt8mH60BZXN3jnjhCSCfAGmNsqNHODFi/9lpDk1LCM/JLY+QdZLh2h7LtAP6GvJ/9ar5ctgkvgNdY/3mIk2adryYFLZlY4ByNSv9phZOIqclAXwvbjD9SQ2UdNZMYRdYOvmUXt7U0Gtwu5CzPQExwIdMjFf0HB+OBaPbmP/s4HqN1vp0l/xn30QR3OS7wCzOH6QAFkFgU/VLEfoKajDwIA7JQcea8eHvrgXtlYbkagozVYQp6BRMw9SL3z/I03hiSlyHjnYiEZe1rV/LwJ6gEahGY0eunXBfX4YPzQyD+21iauKkOo+zDQN9PNGXrLk2SgDP/2Od3goZVNukC9bfiuGiYAI5d3j9ddLmbTYsn05wxaLT98xVVAF44t3oFA315RR97dzD24ADTBACr2WozUFLzseD4nDlXv8DAnXafpv32/s6Yhdy7NpUM+ftmJWgQ6WgPMY1eUgSpcXWfKFN4779kM3rnXAV0u7K7kpYuFZgQ52EZe+v+FDUgNTV9XGPPnPgolPW8IZ18COoiBzTtmYr3kckD+1zo9C98qrZLyOvJ0flPvXhyqtrYAy1YP/bf99gP9ARHQE5sB6CDW83oJJ2Eba+UDjyVLEMzC+YVcOPSirz9bp5p7H1JgYHl16feDEA0oytWaEehoevYaPmsvCRy3tvCmsLRUiXd+r43eeQtvhbmtQjNyXnp7sZcOw+a7vjXynahpm/UJy06jl+4A6VcIMXvSAgnQ8RSE0KomBTpAGvTTD6q0Kl0w1ZM3NxpYKDbZxgp1R1gU5Oy3GMgpve2UOScCemIzAH3PhTry1iYDE3SJ0zkY4hphLvSWv7DBQNSUXU8b6snQLcaGOgmxQbU71FxU1yHQfd47X20kUX+dIKFTNhs6vzXq7YBWVwRKvHMtMq9X+kLu3JriOGu89HtFXnrPG3tHJoaM0S2NnrWLJOsuYoGcHUBPXV1tt5foCqCPo8ccrgD0/1Bv8pAK0C/V1rP+ZNj4k1wIdKGy/uc9NczTthXoEHKPbQag76Ywf3uzgf1sV8I8QccVwkEBnNo6Q88FqPMpAR3m1nv6UBoEuoPGo07fSfqNzPrr+h7hCTzMrfHOr/I177xZvXRq/Tq+8MVL4VNKymKZ2IwRAW2FJfPmqUAHme7ZR2uZTruc+huIvhScU4bYrgtmJskanV3tUqALMrHQovXDbtugDkC/rxmADmH210rcA+ZCyP2f6/RkR4Xye9lLrysIBMmF3PuvqCIZBzx3MA0C3UFGvfPIBUdI8KTik+2e+eQ5YEkzeedeCfTmyqX3vKZdt5j+3/81JWr6dpKUVUG9dAy9a4G42BI9FOiwNpTVsbxoskJRHIwxlZuoBiFbCNdDFXy8glxqbPblwi9HmJZJaHAsw3deHr3qSqCDZ/7fjZbD7An8sWs9X9FSy2pqMQpa7XH8v3+13Sgbdod/mnrI1FANLy2oC6cPfwuPY1Gcr886j82sIGF/7CA9v5k39so720VKvPMONnjnPg90a730uxS89D73PPbfx8Mm5O/CNjbtEPcWoB+rMrPccXy2fKU6hKHH0Pe176KZVJrqmarc4ap6Mplu+o9ST08J5gm6KqbVDp7eS3bay/zrY/T3RVkQnxEK9GAK3Fkr+qUdDfQDF+vIO5sNDWBVgnk877k/SH/3E+v15PH1BrvtCWr/WsfVNshBHY4JtARAHXA/va6QOrlI7cDFejaY54HVlwWEpN493Cv5Z+sQ6NimRgLTC3b946HX/gkMkfSdo3fu5Fy6WOO9Z8trbgjpOXTyV5F/bDUnrjyHUNcAcW8BOgD6651GVimupBAHoezni/Tk461G8uk2I3ml2MBazARQSaEKXiMI0Gw9X8cEVKCwzl47zPrf6yjcLUOdC7/ryY8U6hUapUodCXSYIQ/vP85CmD2ehyuc1zX0vW2rMJMt5620iqYGP2fDOTN5rlAvC2ahdQ2EZCCf/gn9/XAM8NAE/xaTpZR/r2LtbseqUFjGd2FuJLHLz4GITH03yoyW194YIpp37gjv3Cdg7uhcejuJl977zuQn7g/9LW8d18ZW7ZMFcsk2GgN6nmcCHbbm7NN1DYCW02eP1zUOqwt/T1QYMwqe4dJm6lWG2evPFOhZwVaihUI5sC+3GzXl1B0FdMg/v1zM1RXEWwizwzzy9zbL9/k7YkFrGsytj8tW1mgXh9Vjs5VV4uDf4etBCMjkBTNaEOg2FsLlVJGIOftI/zGr19+e9OQDwA6JZjt65y7OpXfjewcDu7096r3IqZv08UtO+EyBXLK9luvZQIcFoelhO4zM803KUW5BszT1LJF551VMOOWkvvm8uLXUm30qX4OnzkMVBHBKLRyPI4AOSnqgdmcJ5nG8+MvH24wsgtFcS08PFzxvOE/xKoVywsOPWjEdFE7+b6OBHK3yjolrCHTbvPOoRcdJ6JRN+s5vjXoPmCEzUQ1z583spVtSj6NPVv49OLGZ1NSgX1f9FT1zJ0nKPO+1oXd7AS412KQ9GeiwtleY2YAUaGGzvR+ckwZVq4x3ZDHfixrD73CNhu80kkqV8Lu9QAfP/I2NXDW7lpz5pxS0Ry7VO+W6sohGpmVoK8EedApgIh5ER7xlIdBtUIRbeZ4VwvX7ZdVft4QKIjL+0olqllTh0Dt3QC5dbRJbJyGXTq1vp1e+fiV8YuHJmLn7ubC7l4TeHQ1xbwO6sPm/uEFPQvmZ6FpBDu8fhoDct7paVYGsOcLvz21QhrrYI4b3A73V5QpQtwfoAPMXiizDnHm6LA8Nnq5z8tD1/HkanKdnPehx2VbAPJuDOURD8s/VEm9aY/cj0K0JtYMqXMSfB0jQhMKjHV748iVghSh33kllopqaKpzP5s4tAd0eL/1e3ktnkrBX3d4uss+Xs0dFTttsTlh6yqND78nNDHJvAzqsPZVm8tEWAwNYdPbl0aFJCvlyoZ0MJE23nnd+OHYtfYB4Uib8LhfmhvcD7Vpn9GaHAR0Gm0BrWrSGanb4GhiIcswFYeu99Dhh+loc3+amBnbha2L54sYNXuSZCwtUHZMQ6JoV4aIXnyShv2+u7/7ptJ9aXndzuEjitQvPEOm8cyHU7rOa7c2dS1fy0tvzT1hd+Seu3ncNGPJw8OjsXKYgl+05venJToS4twIdFozHnH+8luVMoc8cCtBisi8XTcGfI/lxq68W68n0IyZyvNp1lc8QFXi2kEI9u4qBVy13DccMw0fKa+wHOlTfg/RtjIacOWyMECE46sIKcagjgMl2AOlEFkrn0iRC7zr8OZwXk4FWwemHTeREdT3xxoVA195zHreqgoTP2EX6/Zqde0faMw/yhXCCiEwnniG2zDtHoFuZS5dOYhMK5AQvvY2MJCw8efXr8uaItyImFZ2Lm3+IpK52z+EtrgK4twMdFviQZTX1rPVsHoX797tqyAebjeS9zQbyzS5uLOpG6rmdMZhVdcGdtTaW17Gedy1Qh9dh1FMHLXpbgQ4jUJ/foC1nDp45zIc/4gbtXnCt4JptoucLRtZ+ucPINObf3mQkX26vIX/Qh7Pi8jr2UFfnnSxHoFsxfIX1nM87RIIziso6/W/k27winNwAFsE7vxW9c9fl0mXEZliRQ+9r2neL7Tt8/qTIP7aShOWlbhN6dxeIywF91L4ar90AYW8313Pmrvt8IX3A+Dd46lnVqlCP51vrYPZ3Od/SVqZBy31vJRcqP1xlZr34MaKUhNLviciqYsB0V0/XE64rAt11Ve0xS0tJ6NStpPc38ydcc0+XGM4795eKyLTlWWKLd44wtzKXruSlC21sbRTa2Hq3f/ztJ0N/yyuKmbPHJcNbkh1puc1nAtB/pUD3pU3RHdf6c3VkCIU6g60FTx2A+93OGlJBYX6+RhnoQoEgeOV/V5spoI0Wf77QCjZ0q3cIsSDQfbDnPOsCCZ+1h/QfnVNw9yNvPM6H2uXa1NrItKmhd95MufTWMl66nCSsqI2NE5uh1r/7++M/jphSUhG36CgPdL1nALyZIS62JAS6W61N580sBxytAbpw7b7bZWT91TAnXE7ZDX4GXGeYHQ+iMbEaPHP4OZCicEZrGi4EusPnnOcZhOErlV0oA/hQu1REpp2KiIzYO2+NuXP7c+kC1MVeulhsRgi93yHfxuYPRQ99buwemhj405JZUdO3ksQVZxwWevdUeCPQPWNtKLs8Cc4S1MHbfod63SB7mqDydSm5l8PvagpwEVlcUZm3FpQh0H0n1N7n+8UzruscmMCH2pXa1O5QaFND79zJYjNC6F2mja2hQK7PvS8MeyFk3Jqd0bN3k+TsSpuq3pO9DOIIdPdfoI8OoioxOnWPWjyK1NLY0kQNYXYogPsbYY5A99Sq9sxKEj5zN+k/dvXWdkPYaNQ+GgvhUESmGaAe4MA2th78xQzq9fm0b8MnbbgYO/+QqtZ7cnNarnsaAt19V1G5mbywwWAx522vCZ77h1swzI5A92QBmWquqn1i0cVun0z7CtKuFqapaS2EQ6A7sY3tVkkbm7RArs9NfWOS+/+0/M+IqZvrmeAM9dKTfRTgCHQPg3oZ12LWXFAXwvavF7u2zxwXAt2uUDv1zqMXnyIhv2+p7/X9kulXt+sRx8O8JxbCubeCnJYCOXHoHYoherd76v2ng3/LLYqauZMkZpaTZEdCPddzDYHu/mt1aR15Ol/vcKgLYfb/bTS6VFwHFwLdXpjHriwnYdN3kP5j8oraPvn+08K+L1KEc3QhHC4nFshJFeTgSa1Pr6EZn4Rl5J+JnnuAguwShbre5wCOQPfMtf4szAg3NLSsOQLm8AoTzbAAzrMWaLkj0EWh9uxLJGIO02o/023opE+E/V5FEQ4L4dy8QO4WmdD7vZdD7/4s9H7lTXdF9//+rynhU0pMcYtPcEC3BPVc77Ykfnzqz3tqmEAHLvddJSz8rmetZ/ZAHR4KAAZsnjnC3KNWLb1cMFIXIjVxCHNmUYv+JiGTSox9hi+a2PqWu6I4mPsr9ZwLhXC3yITa1QrhEOjN6KUrFcgp96b7+0P4pc8/Bj//aPDo7LzI6dtJ4qoyVvXuC+BWAzq8frrdSKpqccN097XmbB15ukBvUYPdUpgd1OLOGhHmnrbgmsFAnTgEOpN2jVl2loRO3UL6jczW3ZH61EM8zLWE2rEQzgMU5JR607nQu78/hGF6d3171Fuh49cfip6zjyRlX6BA1/ss0JP5/uWnKCS2VdThjukBK6+UG+gSa2X4XfjaoVuM5LQeYe6JK/dMHbl/bTVrZ0Q1OFCD20uCxq093OWt0W+znDm3x4tD7XI951gI58Y679dICuQshd5hFm5w32/njgmbtKEqdsFRCrUqn4Y6G93Je+kn9GbcNT1g7agwkzdKDA1jV7UAHb4ORrCeMyDMPXEdqTKzUb8A8zhfh7muikTOP0KCJ26o7Pn1nyNgT+f2dk2hdqEQ7ho/nKbmdm1slkLv7eVC77dEDhoUODJrRcTvm8xxS05yQPdxqMNG8US+niw8biK7L5jJgYtmsh/N7QxGnx6rrifTDpvIA2v0rAYiKdcy0O9bU01WUw8PpGI94dru8/HrLLz/PfSzuPRkLXlsvZ5EZl8eaevTefO/TpKQyRvNfX9Zuei6zv0TGcy5vV1N3lWt51yLd45Ad0Ibm5yCnKbQe8eXv34pZNyaHRHTtpKEFeco0A0+HXoHKMBmEZpZRfqvrCJ9fdz6uLHB8YVmVbHrxVrZctUNviaWWhC9tr1XuL/1otYTjZ0HsP6rqkhUNubNQQ0uZvlZEjZ1Kwkcu3pLu+e/eEEh1C6taseeczcCujUjVjWE3v2E0Hvfnp9N+zIsPf909KzdJCmrwufz6UloFuHoaZYgWI7nGPZXo8l557GrKkj4zF0kKD3/RPePJ38q7ON+ypPU5ELtSj3nCHQPCr2Lq967C/n0lq2uiOg/fGF6WEbhxZh5h0iS7pLPQR0hjiBHkKO5fd48+yKJ+JP1m1/sPXzBOLp/h/hdnqQmVLXfq7Gq3RrvHIHupqH3xlrvXM6l7/Vdg1OCRq5aEj652BS36DgHOi+HOgLce0GOMEfzRp32qIXHQae9pu+IVYuu7xaSwufNxVrtSgIy9oTaEeZO7k23NvQuGrPakE/vc8/jbz4V8lteScTvm+rjl5XyQNcjxBHkCHKEOZor55vTfThmyWkSOmWTuf+Y3II2D7/2OOs3v5w3t7eqHUPtHhB6F2RhlbTeO/Nhml7+AQGQg+nd/d2x74WOX3eEE50p9wovHcHtYyBHrxzNy7zzGNBp/2MbCRq37mDH//zyX4C5v3+AkDcXj0VVCrXfgFXt3hF6lwrOyLeycTkYyMUE9Ro264ewCQVl0bP3eqzoDELbd0COXjmaV+fNYb75rD0kOD3/XM8vZn3vx41EFfLm4hY1ubGoWNXugUDXIjgjjFkV8un3NGll48T8+7W47qbo/j8vnxmWUaiPmX+IJOe4f5EcwtrHQY4wR/PGvLnuEon88wAJziis7vPjkmktr78lmoO5aova7aIWNXGoXUmrHYHuAaF3Oa13IfSuNDsd8ukQxul3W/SDDwSN0uWETyoyxS485pZKcghq3wU5euVo3l8EV0WiFhyDIrjafqN0uptD0wYzmGvPm9sjIIPLzULvYq136ZhV1Xw6D/W+7R5/d0jIuLXbwyeX1Mf99TdXIOdkqCchwK0GuE+APAdhjubNMG+YoGYOHLtmc9sn3h3CV7RryZtLx6JiqN0Lqt6tbWUT9acz1SHI0fTr+taod0MnrD8S/vsmEr/0tFMq35MQ4OiJe5FHjiBHs7aiPZqraCdB6esPd3zth//ynrm037yjSovajX6Wx6Ii0L2slU1JGraHkE+nFtzjk0lfhGYUnImYtoUkrDjrcC8dgYwg91aQI8zRrK5oX86NQw2aUHCm68eTv6B7cCBfCCftN5dOUZPmzXEsqheH3pVa2ZT707kbqH9Ay5YRvb+cOSIso7DS3nY2hDCCHEGOhqYg6wrtaXSPDaJ7bY9hM37x9w+IEMFcLW9uacY5htq9OPQuzqffrpBPF+u997/y9jZx/b5bOCk0Y0N11MxdJFFjOxvCFyHuS5XrCHM0m2GeWUnCZuwiwXSP7T180cTWt94Vx8O8rwTm0rz57ZK8udYWNQS6h4fe1fLpcv3p3cVQv6FbcGrgLyvmh03cUBP9536SpLvYCOoIXQQ5euVoaLZptIfP3gcwr+nz84r513cJShX1m/eS5M3bKfSbW8qbo3fu5a1scv3pbRWgDjdW4G1Rgx8IGq3ThU0sqo2Zd5Ak8T3qCF4EuS+DHGGOZjPMdZdIxNyDrD2tP91bb4kY/ACfN9dSBGcpb94aYe7dUL9KoT9dSe9dKJLrzT8xBt45aMjjoenrtoZNKjJHzz/EAQihjhBHkKOhWT1wJWLeIYC5OfC3tSV3Dh7yuKgIrrdMEZxc3vxGO/LmCHQPL5K7UgT16zQWyYmV5OBGC+rw7Gcvh07IPxA2qbg+ZsERDugIdQS5D+XJEeZodsGcWuT8IxTmxfVB6fn72z499EVJRXtPFZjf7iev025N3hyXh+fTWyvk07UWyYmhHnLvK9/8Nyyj4FjY5JL6mIVHeaAj1BHiCHI0NEu95pELjoJwTH0Q3UPbv/Q19JqHKlS0C0VwbTQUwWHe3Mfz6dIiuVu1Vr5TC+v8+nfvhmYUnmJQX3SMJOcZENYIcoQ5GpoSzKnjE7XwGIN58ITCUx3pHgp7qRUV7beqFMFh3tyH+9PtKZLry8JDLVpGdn7z14/CJhWdC5tSQmKXnESoI8S9Lk+OIEdzhCXQvTFq0QkSQvfK4Iyic53+9+tH/i1aRvCh9r4yFe22FMFhvzkWyckWyWmCeourr4/u9u64zynUK8KnbiZxIBG72oggR5AjzNHQGmBuZJKuIVM2kZCJRRWd3xn3OeydVsDc1iI4zJv7SH+6dIiLliI5uXa2oNY33Rbb/cOMb0Mnl+gjpm4h8cvP+CzUExHkXgFxBDmaI2Ees+wMCZ26FYrgqrp+mPFNK7pnwt7pJz/bXE0JTksRXAuEuW956VqV5G7T0M7GoH7Vne0Ten01e0zY5OKaiGlbfQ7qCHKEORqaEszDAOZ0b+z+6bSfr7i9bbwMzNXa07AIDpfVRXJSqN8sqnzXAvXgazv2Tu39zfyJYZNKTOEU6nHLTnt1Tj0RDUGOhqaSM49eeprzzOme2Oub+RnXtOuerBHmUiW4G1SK4LDfHKGuWvkuLpKTtrOpQv2G7iED+v2weDr11OvCp24hcV5WKIcQ906QI8zRHA7zxSfZ5LSQScV1feieeH330AGwR4pgbk1FOxbB4WoCdUv5dLXKd6096sE39Y4c1O/HxTMo1GtZoZwXQB0h7n05cgQ5WrNVs/91ghXABU8qrqUwn3Ej3RNFMO/TDDBHoKOXrqnyXTpDXRPUb+gRNrDP8AWTIKce/vsmErv4BA91PUIcPXIEOZpX9pkn5PIwn7wRYF7T69sFk66neyEP8/4WYC5uT7vFTpjjwiI5i5Xv4nY2YTqboprcdR37pPb5cva4sCkU6lM2kti//iZJq91XUQ7B7RsgR5ijNZtozKK/OZhPLDL0HDb7t+s69k21EebS2eZyFe0Yakeo21X5rqVHvZGnfl2HXil9hlGoTyoyhFGoxyw85lba7whtBDkamiO02aMWHONhXmzo+ekfI65p2yVZA8zles21zDZHmOOyWknOUo+6Jqhfc3eX5F6f/TGSQr0qbHIJYQNdXDilDYHteyBHmKM159Q0GLQSMqkERGOqKMxHXt2mU5IFmLe3Aubi9jQUj8FlEeotrIT6/1kL9atuvzuh58eTvg+ZuOFC2ORiDuo5VU6DOsIaQY6G5nCY66p4mBeTILq3daN73JW3t02QgbkWFbibbGhPQ5jjsqpITjrIxWaot7rh1rju76Z/HTZxQxlAPXruAZKYfaFZoI6Q9t2qdQQ5mjNgHpd1gUT8eYB65cUkmO5pXd9L/xr2OCtgriYcg7KuuFwK9TZaoB5w1TUxXd4Z/VloRmEpBXt91Ow9JCGzwiFQR0CjR44wR3MGzGNXVZDwWXtIcMYGmJpW2uWdMZ/B3uYAmNui0Y5Ax2Uz1IV2Npuh7tf6yuhOb/46NCQ9/0joxEJz5IydJH7FWQp169raEMwIcQQ5mnNnmRtIzPJzJIzuWRTk5iC6h3Wke5k/3dP8OAU4hDkuj4b6zTZAHW788Hue+/S14PHrtlJvvS7ij61sUptaBTxCGUGOIEdzXfGbnk1MC522DWBeFzhu3VbYw2Av0wjzNnbAHCvacdld+d6cUIfQVEibR14fEjQ2bz2Feg2oyoEATVIuVyyHMEaQI8jR3KWSnfWYg/rbhMKawDF56//x8OtDYA+z0TMX9NntUYFDoONyCNTl1OS0QL2bDNSD/y/qvkf6j1i5KHTihuqwKSUkeuExkphTRRIR6vbBPMe7DWGD5hSYZ18iUQuOkpDJJSQoo7C67y8r/7o16v5H+f0rSKY1DWGOyyegLlWU68d/IIKv69R3YN/vFk4JySi8EDq5mETNO0jisyo4qCPYfb5iHUGO5gqxmNjMisuV7BMKzvcevmDStZ37DRTBXE6b3RLMb3QAzBHouOyCeksboS5uabtXDepX3dY2sdewWb+GTMgvpd46iZy1m8SvPIdQx9A6ghzN6fny2BXnSPjM3SQ4o5AEpeeXdv/8j19aXn9jvATmclPT7IU5jkLF5TSot/LTNqFNK9R7i6FOLarrR5O+Chm//jAUy4X/sY3ELjmJIXgfhTiCHM3p/eW6Km706bStAHNz4Lh1B7q8n/4F7E0yMO+hEeY3aQyzW4I5Ah1Xs3vqWlraBKi3k0BdPE89kP/AhHV8efibwWPzikIyCmtAAz564VGSoLvIQ12PIEeQo6E5uCWNwjz7Aolk+fKNJGhCQU3/sauL733luzdhT+L3pkAJzLv6yWuzNwfMceFyOdQF7XfxlDYB6p34D4QA9b4iqAfeNWDIk/1HZi4JmVBwMXRiEYmae4DEZ573yRC8L4EcYY7mknz5ynISMWc/J+OaXnChz4jMpXcMeu4p8Z7E71FimHfyUx60Yk1rGnrmuJwKdHvEZ8RQF89T7yCCOrR69OI/MP39/P1ZaOu6Tn0G9PlmbnrI+PUnIa8eMWMniVt2hgOdl0Pd1yCOIEdzVUtazLJSEvbHdlB+I0Hj80/2+nreuKvbdU9j4XVuL+rP7029JDDv4Nd0BKqcNjt65rg8Gupqo1cFqN8jgnoXEdT78FAX8uqR3T9I/yJ43JpdIZBXn7qFxCw+QQFwyeugnoAgR0Nz4nCVSyTqrxMk9PctnFjM2DU7u3yQPgz2HD/oMef2IKEtrZff5R5zAeb38HvZXX5N55mjZ47L48Lv1o5eVYK6ggAN+0CBeENw+xeHvRE4Knt1aEaBPhTy6vMPk/hM72ht80WII8jRXBlij1tVQSLnHRby5fp+I7N07Z75+FXeiQjh9x4lwRgB5m0swNzSoBX0zHF5BdRv5z8IbfgPhlyv+uViOX9/psh0W/QDj/b9ccmskAkF5aGTikjErN18CN7zquB9FeIIcjTXhtirSAzdM1hL2sQiEphecL7394tn3BSc/BAfYg+RFL/J9ZiLYX67Csyv8sM+c1xeDHVxW9vtfk0FaJQr4P0DmLJc6/+7M6nXsJkjg8evPQJ59bDfN5PoRUdJQlYlJxnr5mBHkKOhOR/kCeCVZ1aSyIVHSeiUzSxfHjhu3ZHuX8z6tdVNdyQyz5zbY+SK36RtaYIu++1+TXvM7YU5LlweAXWlXnWhAr6tQgW8tFgOnqAjurw14sOg0bqCkIxCE3jrkbP3krjl7lkw58sQR5CjuRbmBr7wjXrls/aSEOqVB08oNPUflVPY+c1fP4K9RJIvlyt+U2tLkxOMQZjj8nqoX60B6tIK+KbFcqK8epv7X/p33x8WzwxJX8/U5VjB3KLjnLe+2uDSnnVfhziCHM3lXnmegXnlUQuPc4VvrIp9fWnv7xfPbHP/K/+2kC+Xq2S/C2GOC6GuDHW5vLpcsZxULlboDQ1ucd1NCd3eHz8saExuCYW6OXRSMYmcQ731FWedVjCXIKenjiBHQ3Np4ZvglQfTPYHC3Nx/dG5J1/fGD2tJ9wxh/xDly+UGrEgr2eXy5QhzXF4JdktQl+q/KxXL3alSLNdYhOZyCD7k7sf+93yf7xfPDplQUMa89WlbScxfgrdudDjYE3y81QwhjuaeXrmxsVdO94Kg9IKyXt8tnn33o28+L+wXkv5yJRnXeyT5crVKdgHmrRHmuLwd6nJDXeQq4MXFcnIa8F3VQvCt72yf0v2jCV8HjcnbAlBv8Nb53HpSnsHxEEdvHA3N5ZYgzpXPFrzyonrwyrt9OOFr2BsUQuxK+fK7RTAXh9i1tKWJYR6AMMflbVC3tgJeS169cQj+srce2vaJ917q++OSuWwcK1TCT91MohccIfGrzlvtraMHjiBHc3+vPHbleRI5/wj1yrkK9mD62e81fNFM3isPFXnl0hC7VCxGnC+/QyFfbqmSHWGOy2fz6nIV8Ep59faSvLo4BC/21kOu7dhnYLcPM74NGpOzBSpbmXTszF0kdskpkphziS+aQ4gjyNE81ivPMzC1t+jFp0jYjF0cyKG3fEzulm4fTPz2yjadUhtC7H6NqtilIXZxf7lSvlxc/GYPzHHh8pliObW8ulIIvocoBC+MYg3hn8oj2v7zfy/2/mb+HyHp+WdDJ1FvHVTm5h0kcSvLSCJAPU+PAEeQo3la0RuFecyKcyRy7kGm9sblyvPP9qKf9Xv+9daLflw7Wii/FwSJvHJBwlWuv/wfFvLl1ha/oWeOy+ug7m9FsZw0r67Wry4nGSud2gYf6NAr7+qQ2umNn4YGjsxaEzKpyAzT28JnbCcxi/8mCdkXKNiNTHgCwY0gR3PvMaes6C3rAola9DcJnbaNeeUhE4vM/ehn+97//PTRVXd1SBE90EuFYuQkXIUQ+z8UQuxKxW9qMEflN1w+CXVbRGgEydi2fvJV8KKCuUbeevgdSU8+2eOzaWOC09f/TcFOQieXkIg5+0jsslKu4I0+9SPEERxobhpeh6K3paUkYvY+ruiNPpgH0c9yj0+njbkj5akn4TMu8cqlhW/SELug+iYOsVuTL9cKcwQ6Lq8NwWspllMaw6oWghePYm2sBS/y1ltcc31Ch+c/f7Pfz8tX0id7U0gGJx8bOe8QiV1RxqplmSHI0dDcQ+ktF8LrZSSCfkYbit4mFhn7/LhsaYfnPn+Tfqbjhc833WbEhW9ir1xN9U0txK4lX94Cw+u4fNlTD7AC6lqq4OWEaBrLxkq89VvC0h7p9sGE74N+W7MrhD7tM7D/sZ1ELzhG4jMrqbfuO2F4BAeaW/eU08+kMK8cPPPA39bu7vLuuG9vCkx6SKNXLhdiv8tCiN1SvhznmONCsGvIqyv1qyupy0mFaJS89Sa59YBWrWPbPPz6Cz2/mTctZMKGc1AND3CHaviYv06Q+OxLHNgR5Ghozs2TZ18k0fQzGE4/i0J4PXhC4Tn4rP7jkTde8PMPiLnslfsptaOJvXKlEPstCiF2cX85Kr/hwmWFp25NXl0qRHObKAR/t0zBnDS3Lg7Dw1N92FVtu6S1f/bTt/r+vGJlyMRiI3jroZM3ksjZ3plfR2iguX+efC8JmVzCh9eLjX3oZ7P9s5+9BZ9V+Mz6NbSjWeWVyxW+2RNiR5jjQrD72SZCIw7Bay2YU/PWpWH4yBv7xj7Y6T8/fx44JndjQxge8utzD5K4FWUc1D04v47QQHPXPDnAHGpYIuhnLXTKJvDGWbSs/5i8jZ3e+PnzG/vFPejXtBVN3Feu5JVLZ5erCcVYE2JHmOPCpQJ1a0LwWgrmLOXW+8gUzYX5+fvH3Bb38OM9Pp4yIjg9/zD12DmwT9tGouYfIXGrzrPNx5Py6wgNNPcdomK4rPLGt6GxPPm49fu7D530821xjzxhIbwulm7trOCVKxW+iYVirAmxI8xx4VIBe4CVIXgtBXN3KnjrXTR462Gtrrsp4c7BLzzf69sF00MzispDuH5XEj59B4laQMGeWeHWYEdgoLk9yFdxIOcK3op4ydYNZ3t+NWfKHWnPDOGnooWpeOXi8LpartyWwjfMl+PC5eQQvJq3fpuKty436EUO7BFX3tk+9Z4n33uj3y+rVoROLK4OySh0a7AjMNDcH+QVjUEO4XX62eo3YtWKtk+88/oV/3dXskp4XVr0JvbK75HJlVvyyu3JlyPQceGyIwSvVjCn1VtvJ/HWLYXhwaKu69RncMdXvv2w/+jc/JBJxcaQCQLYt18Ge65rwI6wQPOE+eRNQV4AeXJ9/1G6Ne1f+PL9a+/tNQg+axrC62KvXAivC175nRq8cmuEYtAzx4XLyVBX89bliubELW5ib10uDN+QX/dv0TLm+q797+v4yvCPAsesLqCbkaEp2CudBnaEBZongzxwdO7aDi9SkHfsPdg/oEWMKLwugNzaojdxBbujvHKEOS5cDoC6pRC8Nd66UtFcO4UwvFp+Pdy/RavYazv2Gtzx1eFDA8eu2RAyEcBeUA9ysuF004qad5jEriznoO5gsCMo0DwH5OUU5IcbQB6UTj8jE4urA8fkre/wwpcfXH1Pt0ESkFuqXtda9GZLrhyr2HHhciLU7fXWtba4KYXhZcF+Tfuugzq++t3Hgb+tLaablT4kPb+e9bFP20oi/4R2t3McjO0AO0ICzWNATl9j6T0fQe/9MPoZ4Kag8SAfu7qgw4tffXBVm44D/VswkIf7Xe4pl+bJ5cLrckVvSn3lWrxya0LsCHRcuJzkrbf209a3Lm1xk8rHagF7oAjsYRzYW8Zcffe9Azu+/sMnQePWlcDmFZJeYGbtblM3cwNglp6mcK7iwa5HkKN5jbIbB/IqEkPv8XB6r4dO5fTWg+AzMLG4Kui3NYUdXvr6wyvvuGcA75FLQW4pTy4Or4uL3pRmllvrlWPhGy5cHuatyxXNWROGV1WboxYBXsfVt96T1uHlr97vPzZ3TcjEosqQCQV1EI6HOexMUnbxCRKvu6QIdgQEmieBXCzRGkrv8WB6r1OrC6b3PnwGOr70zQdX3Xp3ml9AgBTkagVvWsPrampv6JXjwuWluXWpJrylorm2FvLrysI00G5DN68WV16dePfjb7/Rd8SqZdRLORcyodAUnF5QDyNbWcvbwqMkPquSQT2+wRAUaG4Ocd7i6L0bSe/hsOnbmUQrhNWD4R6n93rfESuXwb0PnwF/yyC3lCcXV6/Lhde1qr2hV44Ll5sCXau3rqVoTtq7LoBdGoZXKpxTAjtsYtH+LVvF35H0xDO9hy/4g3rsf1OwG4Ihzz6pmOUYI/88wLSr43VVok0T4YHmbiCvZvco3Ktwz8K9C/dwUHq+ORjuaXpvwz0O9zrc83DvOwDk0qlo0vC6WiuarRXsCHNcuNwoBG9L0Zylanhpfl2pIl42x+4HvbX+/nHXdw99uMcX08cGT9hwgG6Cl4LG59eBqAZoV4fP2EmiFhxl6llNNlI0NFdBHIrc6D0J9ybco4LOOrt3Mwov0T/v7f7JtFFwb8M97sf1kSvlyJUq1+Xy5Hf5aatetya8jl45Llwe7K1bKpqTC8OLq+FtAXsfFbBHUotp3abDwM7vjv+GejebqGdTTl8NQeC1TywioVO3sElT0UtOsfyktIIYDa25q9TBWG6c3oNwL8I9Cfcm3KNwr/L37KbO74z7pvUtd8L0sxj+3lYrdtMKckt5ckvV67Z65Qh0XLjcFOxavXVpGF4pvy6eu64F7HLtbkI4PtyPk7WEkGT83f98+9U+Py6eQzfJw8ETCiqDxq83MSnMyRtZ/27kvMMkZsU5VkWMcEdrToizSnV6r8E9B/ce3IO8N14L9ybco31+XDrn7sfeeg3uXf4ejuDvaUEQRmg/swfkanlyS+F1a71yBDkuXB7srVtTDS9XOOcosIfxmyHz2q9q02lQ57fHfBk4ZvXq4IwNp6kHVEXhXg99vKG/b2JVxFGLjjHBGi7fXoVwR7MD4pfz4nBPwb3FKtXpvcZ6x+m9R+/BargX4Z7s8s7or66+u8sgkTceIcmPy/WRawG53BCVW1RAbkvRG8IcFy4fDsOr5delFfGWwC5udxOU56Qtb0I4HvKPsbclP/lMr+HzpwSnF+6mnlEZ3VxrgtK5+dAhv2/m4A759hVlrAWuMdwR8GhKveKcFw73DIP4wuPsXoJ7iitwA28c7rWCMrj3eg9fMOW25KeegXuSvzelYXWpRKu4/UwryO9QAPkNzQhyXLhweQnUtVTDOwLs4qp4sUCNXAGdnNce3fL6m1M7vfHD0H4jMpcHTdhwlG625yEkHwRa2BOLSMgUCvcZFO4Lj12GO3jvuXqEO3rhl+8BHQdxCKdDuyTcMwziEynE6b3E7im4t+g91u/X7OUdX/9xKNx7IogL3rg4rC5X6CbXR24J5HIFb7bmydErx4XLB+BuTTW8pcI5a8Au7mMXK89JC+iUvPaGkPxN/eIe7fZhxvf9R+uy6SZ8hG7AZbJwp547bNysoE5X1XRzR9h5txcueOIU4HAPMIjzFeohUzZxxW2XIV4eNKHwcP9RObpuH0384aZ+8Y9JQupK3rg0Py5WdhO3n8nlyG0FudY8OXrluHD5gLdua35dqXBOCezSqvh2IrALkrJK4Xglr12AOyumu6FP7CNd3x8/vN+vulVBE/IPCHAPboD7RhI2fSeJmHeYRC85TeJWVfCAvyQBPILQewBexa4xXGu45hFzD9F7YAcH8UnchDMG8XHrz8E9029UdmbXDyZ8d0Pf+Ef8Lhe3iSGu5I3L5ccFiVZxH7m1IBfLtdoaXkeY48Llw6H4Fg4G+/8pgF2sPCfNs2v12uXgHnVD3+hHun2Q/h3APTB9/b6gcevOBqXnU8+9kAQD3CeXsLaj8Jm7SdT8IyRm2Rk24rXBg8/VowfvaQDP1V8GOL2WcE3h2nJFbZvZNQ9mnnghD3F6T4zP39tvlG5513fHf3t978hH+HC6HMS1euPS/LhUEAZBjgsXLqdDXQ3slvLrWj12saSsXJ5dCMdLq+PlvHYe7v5N4R4Y92jXD8Z/S+G+PHD8+p1B49aeoJt5VXB6PgnOKGQ5U2hFCp22jYTP2U+iFv3Ncu9NAW9AL95dcuDCtRABHK4ZXLvw2fvYVD+4pnBt+YEohF7zS/Ta/x04bt2OfiMyl3Z5b+zXN/SOelgUSudf/aUQl8uNi71xaVhdnB8XJFql7WeWQG5twZvWPDkCHRcuBLtNhXOWPHZhsps0z64Ujpfz2sUV8o3h7t8I7uz12i7BD3R89buPen+7YGr/MXlrA8et3UPtNPXYjBB+hc2fVc0D4P/YTiL+PMCqnmOWnyWxEKLPusCF6JsAHiHfvN634XIOnF4DuBZwTeDawNS+UL4/HK4dXEM+lG6k17aUXeMxeat7fTtvSodXvvrg2s797xffE+zV319LSF2rNy5X6CZtP5OKwog119VAbkueHCGOCxdCvUn4Tuqtq3nsalXx4j528chWuXC82GtXyrXbAnf4e+xtCY891eWdMV/1+WnpnxTwhYFj1xygACjntbgpHIp4wJcwnW5QCGMFdktLSezK8yIvnsvDJ+QZEPR2gpudQ1EBG/O+6bmOWXKahdAjZu0hYVO3smvC8uATN3BCL/SaUS+8jF7D/XAt4Zp2eXfs17fGPfSUH1fUFiaBuJInrhRSF+fGpd64UlhdrOwmbT9DjxwXLlxOh3uAHR67ktcugF08slUtHC947eJcuzgkL4V7P1W4+wdE+Elypa1vvj217T/feq37x7+P7DcyawmFQnHg2NUHgsatPUdhUccBfgNXYDephOVlw2bs4rz4BceYJGjsinKm8Q1TtziJWi5c3wT0vhi2z5UBNz8znIGbnjM4d3AO4VzCOYVzC+eY5cDpOYdzz3ngDOC1gb+tPUuv0X7qgRf1G7Fqcbehv//S5pH/vtLi+ptS/BorEEawa64d4uK+cXFIXc0blwurS5Xd5PrIrQU5qrzhwoXLLm/dGo+9lY1gVwrHi712aeubtJBOnG/XCHf/cP/LgA8X7OoOve9r++R7/+n+0aSf+v64fG7/0Tlr+4/J3fn/7Z1/cFRXFcffbgJFi9UAaUlpms0Pw88kmyyUhISWWmf6Rw06Nmo7MmrTiBUdCANDS6vUIsSWtkAIxWlBkBnrDwrID1shhRKEYgfsWK12pgjGMpXBjq1TZYb+oRPveT92756ce9997+2GHz3fmTNkdt+777y7f3zu95z7HqmnDp+d+sOXL3iAtzfZQR/eLdU3Qi9euMjmbacHWn55xnXz7zole3D0vfLO+gsS7C93Z49K5PK9Ycct5gLmBOYG5gjmCuYM5s4rndv9bxfg7ka2C2Lu/y4WWq83dB88XLdq7y8m3L9xVendi7710cSEO+TfDn7LmANwPyeeRBCX++JySV1+5Ay7cb+yuu7NbmEdOcOcxWLltRSv2xVv2mfH5Xj5nfFUrx3DfbwP3JM+gG9y3XszAvz04aOvu31c69c7xi9ct7yma+eW+rUv7heQPyEgf1KA5h/ZkPdA75bsN79qPy4F5WLH0f9toGXX2/ZObHgmOg383vcF9P6T9aw8QPFThz5w/xVwpBYAJnEQhfG5F7IAnYkPJJftPSKW6XHbwBb3Zu82F/cK9zxj2ymnZJ5+dOy447o3uqVzz32LuYQ5FfA+KeB9Irmmd1/Nyu2bqxd0f6+ktaO98JrRsgN3XHgsBi7c64frXHhS48QxxKmSutcbp9x40LJ6UEfOIGexWEPq2FVgV22gU70vXuXadXCv1MB9ciC4Wxn3HovHqUeZZo25+XN3Jb6ytHPC4vVdU76/bWP96n176tf09jV0H3gt1dPXn9pw5L1pTx/7rw0qD/TPuADbJPfn/2C/AGfGz94caH7utL3Za6aA4MzdZwdm/uqcvQHs5ucFHF/4pwv/9zKO33b977vxb8cF2yHgeiATmXfdn3fgK31nH+udB2N449nj/8sBNFwTri1ysHMROUFudo4AbJEz5A6b1OBRMcdtn3A2qm3yoC2B23bex/4Hc5Ra39cvFkevwdzBHMJcwpzC3I5pmX0XzLU77+k+uP2bZADuvejFBOJTAkCc2qlO9cZHESAfaZm92S2qI2eYs1isi+bYTcvxfq5dLsnfYOk301E992DuHaDh9N+pEr0H+earE5NbS+64p71i7oolE5f+6Im6rh0/Tj75wl4Bq6PC1QvQHzol3Oe5qRuOnk87+nTI4DvuwvC40z8Wjnb6lt/boASHCwsAKFPDRr0ZPz9pO387hAuGEjbAtXn7X0X0DzTv6HeqAjvfckL8DZ/Z38ExcKw4x3bQ3jgwphi76adv2NeCa8LjYJCD465PuLkdt3PN5J0NbcdxHz2feuo35xp6XjoFi536tb1HYE5qu3ZunfjApicq5668v6T13vaRiZpWtzoiv18gKsBrLPXGNlU5XQVxXW/ctKzOjpzFYl2xjj1IOX5UQLiXaeA+gQB8rQHgvbfVZXrw8XiT5OIp0M8qmvrpNgGtjoqvLVtUvaB7+aSHtnbXrtyxJblq7/bkk79+sX7N/t8K2P1JOPu3hGuFt9ydh41fXp8+C5JZjv+VDEi9TXve8TJgs4A7+Pv0eWg85XW9/rbI0QY27DAXuTd0H/yzWLy8AvcE9wb3OOk7W7urO9ctL79n2aLrP9vRUTTttjbkugfBG+aU6IGHAfhEDcRlF24C8TBunB05i8W6Yhx72D57vuBeEdC96wCPXXy6VG87eQAT7eYbM8dbLSOr6lqvvbVtzo1f7JxX+Y2upeMXbeia9ODm1ZMf/smGmhXbN9c9uuvZusd2P1e3au+e5OPP7xewPFS/ev8x4XRfFYuA1xvWHXxDxJupnpf+Ilzw6YaeQ/2p9X1nUusPvy3irPM89pF3RLzrxjv2Z/CdfUzfGTgHzrXHEGPZY6498EcB59/Vr973MlxTXHufgPTuusf2bKv7wa5nITfIEXKFnCH3G7/UOQ/uZWRVLbjtFuk+B4Pba2eknXdMnhcMbxXATV14pUVvbAsLcT83rgJ5gcWb3Vgs1iUK9bDleL830OUK7iUI8PKjcDLgde5dV6KXIY9L9TchN9+YBn28wA4F7GWweZu/Zg0rKr5dwH92Ueq2LxTPunNOyWfa7y1tm//NsrsXf7tszpIF5V99cGF5+7LF5R2PLKmcu+KBqvsefahq3uPf/eT8NQ9Xd3Y/Ur2wZ4Ud4m/4DL6DY+BYOMc+V4wBY8GYpXfOvw/aB8W3fP7LRQ23tl1dWTt7+MevhQ1pt7g5TSeAjdx2gRsSuGODwO0Hb5UDV7lwE4BfHxHiJm680DJ7htzvNa0MdBaLdcmU46PujtdtpIsC91KLftYdu3dViZ5y8bKT14Eeu3o7Yg7wRRQ0paEPO7gz5XxqEdCEojFkUGNkdpLLIXLKwLrAydkBtnMvlhLaFLh18FaV0MO48CgQN3HjuSqpM8BZLNZlAXcTsFOuXbeRLgzcgwJe14OXIY+dvAno5f78YHcvu+BYjIh4Ew63r28c1BiDruNAupHI6yYfaMuOG4PbD95UDxwDPGFleuF+AM81xHX/DzmX1Fks1ofSsYfdSBcG7n7uXdV/V/XgMeSpcj3l6DHsqRK+DH0K/tRCIEpM0wTOI6Vw2ipoU+AOAu9ya/AjZR7AZYiPNXDhuYC4qRvnTW4sFotde57gbgp4nYPXQV5Vrlc5+ikS6DDwZehj8Ncj16+KlCZ051HXShKwpoBNQZsCt855e+XzMh8Hriqj61y4riduCnHeqc5isRjoEV17ULjjnrsf4IsR4E1dfMLK3mxHlewx7D3gq6A/2Rq8MQ87/hoiagOGagx8vSlEXhjWlNvG0KbAnbDU5XNcQscAN3Xh+YY498dZLBZDPqJrN4G7yr1T5XkP8LgHr3LxspOn3HwCOXoMewx8DH0Z/HgBQMWkgKEbC18X56UDdqWVvVlNB27ZeavcNy6h6wCuKqWbQjxXJXWGOIvFYuduheu3q+Cuc++4PO8BnoL8GA3kqXI9BXrK1WPgVyAoVikWAFRUBwzVOFVEYFBXKICdsOhyOeW6KedNuW9cQvcDOOXChwriDHMWi8VwDwl2U7jr3LvOwVNlej/Iq0BPOfpSBHzZ4ZchUFILgXLNwsAvdOMkFJAuQ7mWImjrHPdYaX6w89a5b1UJHQPcz4WzE2exWKxLwLGr4G7Sczd17yrAB4E8Br0J7GXgyw5/HAIlXgSUahYFpqEa6wYC0uMQrClgq6CtArcO3kEBburCTSBu6sZZLBaLNQTO3c+9+/XfPxIC8jrQU7CXgS9DH8MfLwBKNAuCoKEac6wC1NehnIs10PYDdxh4YwceFOBRyuksFovFyqNzD1qax4AfpgG8n5MPAnoK9hj4MvQp+OMFQK6jmAicz2gFsGVoBwG3ifMOUkJXQTxqX5yBzmKxWBfZufu596AuHkNeV7KXQU/BHgP/EwiK1AJAtRCIGqMUUaQANQa2DG2d45bB7QfvqAAP8wpWhjeLxWJdYs49nkPA6yDv5+axo9cB/2MIitQCQLcYiBKqa1yjALXOaYcBtw7efiV0v344O3EWi8W6giAfFPC5hDx29Bj4KvDrFgL5Dl0eVO74/kYYum4/eOcb4CwWi8W6TJ27CeCjQJ4C/XDCjY4wgL7JIiAfocthhCKu8oH2cMVcFQ4xwBnmLBaLdYVDPm7lDvJBYU8B32QBkK+4yjBMoR0U3AWGvweDm8VisRjoOQF83AdKQWHvB/2LGcMMojAEuE3gHeV3ZLFYLBbDPjTko8LeFPz5jsIAERXaUQDOYrFYLIZ65IiHjIIIUZjHiJJX0DnIxfyzWCwWi5VX6MfzFAVDEPnIm6HNYuVJ/wcbFff3z2NoAQAAAABJRU5ErkJggg==;" vertex="1" parent="1">
          <mxGeometry x="540" y="148.5" width="63" height="63" as="geometry" />
        </mxCell>
        <mxCell id="GtWw16-VSp0ScC8IDSwp-14" value="" style="edgeStyle=orthogonalEdgeStyle;rounded=0;orthogonalLoop=1;jettySize=auto;html=1;exitX=0.5;exitY=1;exitDx=0;exitDy=0;startArrow=classic;startFill=1;dashed=1;fillColor=#dae8fc;strokeColor=#6c8ebf;endArrow=none;endFill=0;" edge="1" parent="1" source="GtWw16-VSp0ScC8IDSwp-5" target="GtWw16-VSp0ScC8IDSwp-12">
          <mxGeometry relative="1" as="geometry">
            <mxPoint x="572" y="212" as="sourcePoint" />
            <mxPoint x="464" y="350" as="targetPoint" />
            <Array as="points">
              <mxPoint x="572" y="240" />
            </Array>
          </mxGeometry>
        </mxCell>
        <mxCell id="GtWw16-VSp0ScC8IDSwp-12" value="" style="html=1;strokeWidth=1;shadow=0;dashed=0;shape=mxgraph.ios7.misc.bluetooth;fillColor=#007AFF;strokeColor=none;buttonText=;strokeColor2=#222222;fontColor=#222222;fontSize=8;verticalLabelPosition=bottom;verticalAlign=top;align=center;sketch=0;" vertex="1" parent="1">
          <mxGeometry x="565" y="240" width="15" height="15" as="geometry" />
        </mxCell>
        <mxCell id="GtWw16-VSp0ScC8IDSwp-16" value="" style="edgeStyle=orthogonalEdgeStyle;rounded=0;orthogonalLoop=1;jettySize=auto;html=1;startArrow=classic;startFill=1;fillColor=#f8cecc;strokeColor=#b85450;endArrow=none;endFill=0;" edge="1" parent="1" source="GtWw16-VSp0ScC8IDSwp-5" target="GtWw16-VSp0ScC8IDSwp-15">
          <mxGeometry relative="1" as="geometry">
            <mxPoint x="470" y="180" as="targetPoint" />
            <mxPoint x="540" y="180" as="sourcePoint" />
          </mxGeometry>
        </mxCell>
        <mxCell id="GtWw16-VSp0ScC8IDSwp-15" value="" style="html=1;strokeWidth=1;shadow=0;dashed=0;shape=mxgraph.ios7.misc.wifi;fillColor=#007AFF;strokeColor=none;buttonText=;strokeColor2=#222222;fontColor=#222222;fontSize=8;verticalLabelPosition=bottom;verticalAlign=top;align=center;sketch=0;" vertex="1" parent="1">
          <mxGeometry x="497" y="172.5" width="15" height="15" as="geometry" />
        </mxCell>
        <mxCell id="GtWw16-VSp0ScC8IDSwp-21" style="edgeStyle=orthogonalEdgeStyle;rounded=0;orthogonalLoop=1;jettySize=auto;html=1;entryX=0;entryY=0.5;entryDx=0;entryDy=0;fillColor=#f8cecc;strokeColor=#b85450;" edge="1" parent="1" source="GtWw16-VSp0ScC8IDSwp-17" target="GtWw16-VSp0ScC8IDSwp-2">
          <mxGeometry relative="1" as="geometry" />
        </mxCell>
        <mxCell id="GtWw16-VSp0ScC8IDSwp-17" value="" style="html=1;strokeWidth=1;shadow=0;dashed=0;shape=mxgraph.ios7.misc.wifi;fillColor=#007AFF;strokeColor=none;buttonText=;strokeColor2=#222222;fontColor=#222222;fontSize=8;verticalLabelPosition=bottom;verticalAlign=top;align=center;sketch=0;" vertex="1" parent="1">
          <mxGeometry x="330" y="172.5" width="15" height="15" as="geometry" />
        </mxCell>
        <mxCell id="GtWw16-VSp0ScC8IDSwp-22" value="" style="sketch=0;outlineConnect=0;fontColor=#232F3E;gradientColor=none;fillColor=#7AA116;strokeColor=none;dashed=0;verticalLabelPosition=bottom;verticalAlign=top;align=center;html=1;fontSize=12;fontStyle=0;aspect=fixed;pointerEvents=1;shape=mxgraph.aws4.mqtt_protocol;" vertex="1" parent="1">
          <mxGeometry x="240" y="160.5" width="39" height="39" as="geometry" />
        </mxCell>
        <mxCell id="GtWw16-VSp0ScC8IDSwp-23" style="edgeStyle=orthogonalEdgeStyle;rounded=0;orthogonalLoop=1;jettySize=auto;html=1;entryX=-0.08;entryY=0.487;entryDx=0;entryDy=0;entryPerimeter=0;startArrow=classic;startFill=1;fillColor=#f8cecc;strokeColor=#b85450;" edge="1" parent="1" source="GtWw16-VSp0ScC8IDSwp-22" target="GtWw16-VSp0ScC8IDSwp-17">
          <mxGeometry relative="1" as="geometry" />
        </mxCell>
        <mxCell id="GtWw16-VSp0ScC8IDSwp-34" value="BLE Mesh Network" style="text;html=1;align=center;verticalAlign=middle;whiteSpace=wrap;rounded=0;" vertex="1" parent="1">
          <mxGeometry x="106" y="310" width="144" height="30" as="geometry" />
        </mxCell>
        <mxCell id="GtWw16-VSp0ScC8IDSwp-36" value="" style="rounded=0;whiteSpace=wrap;html=1;opacity=30;strokeWidth=2;dashed=1;" vertex="1" parent="1">
          <mxGeometry x="210" y="370" width="430" height="60" as="geometry" />
        </mxCell>
        <mxCell id="GtWw16-VSp0ScC8IDSwp-37" value="Ministers" style="text;html=1;align=center;verticalAlign=middle;whiteSpace=wrap;rounded=0;" vertex="1" parent="1">
          <mxGeometry x="148" y="385" width="60" height="30" as="geometry" />
        </mxCell>
        <mxCell id="GtWw16-VSp0ScC8IDSwp-38" value="" style="rounded=0;whiteSpace=wrap;html=1;opacity=50;fillColor=#f8cecc;strokeColor=#b85450;" vertex="1" parent="1">
          <mxGeometry x="290" y="370" width="65" height="60" as="geometry" />
        </mxCell>
        <mxCell id="GtWw16-VSp0ScC8IDSwp-39" value="-10dB" style="text;html=1;align=center;verticalAlign=middle;whiteSpace=wrap;rounded=0;fillColor=#f8cecc;strokeColor=#b85450;opacity=50;" vertex="1" parent="1">
          <mxGeometry x="305" y="310" width="35" height="50" as="geometry" />
        </mxCell>
        <mxCell id="GtWw16-VSp0ScC8IDSwp-43" value="" style="html=1;strokeWidth=1;shadow=0;dashed=0;shape=mxgraph.ios7.misc.bluetooth;fillColor=#007AFF;strokeColor=none;buttonText=;strokeColor2=#222222;fontColor=#222222;fontSize=8;verticalLabelPosition=bottom;verticalAlign=top;align=center;sketch=0;" vertex="1" parent="1">
          <mxGeometry x="690" y="480" width="50" height="52.5" as="geometry" />
        </mxCell>
        <mxCell id="GtWw16-VSp0ScC8IDSwp-47" value="-10dB" style="text;html=1;align=center;verticalAlign=middle;whiteSpace=wrap;rounded=0;" vertex="1" parent="1">
          <mxGeometry x="370" y="320" width="35" height="30" as="geometry" />
        </mxCell>
        <mxCell id="GtWw16-VSp0ScC8IDSwp-48" value="-20dB" style="text;html=1;align=center;verticalAlign=middle;whiteSpace=wrap;rounded=0;" vertex="1" parent="1">
          <mxGeometry x="240" y="320" width="35" height="30" as="geometry" />
        </mxCell>
        <mxCell id="GtWw16-VSp0ScC8IDSwp-49" value="-30dB" style="text;html=1;align=center;verticalAlign=middle;whiteSpace=wrap;rounded=0;" vertex="1" parent="1">
          <mxGeometry x="440" y="320" width="35" height="30" as="geometry" />
        </mxCell>
        <mxCell id="GtWw16-VSp0ScC8IDSwp-50" value="-40dB" style="text;html=1;align=center;verticalAlign=middle;whiteSpace=wrap;rounded=0;" vertex="1" parent="1">
          <mxGeometry x="505" y="320" width="35" height="30" as="geometry" />
        </mxCell>
        <mxCell id="GtWw16-VSp0ScC8IDSwp-51" value="-10dB" style="text;html=1;align=center;verticalAlign=middle;whiteSpace=wrap;rounded=0;" vertex="1" parent="1">
          <mxGeometry x="580" y="320" width="35" height="30" as="geometry" />
        </mxCell>
      </root>
    </mxGraphModel>
  </diagram>
</mxfile>
